<mxfile host="app.diagrams.net" agent="Mozilla/5.0 (Windows NT 10.0; Win64; x64) AppleWebKit/537.36 (KHTML, like Gecko) Chrome/130.0.0.0 Safari/537.36" version="24.8.4">
  <diagram id="C5RBs43oDa-KdzZeNtuy" name="Page-1">
    <mxGraphModel grid="0" page="0" gridSize="10" guides="1" tooltips="1" connect="1" arrows="1" fold="1" pageScale="1" pageWidth="827" pageHeight="1169" background="#FFFFFF" math="0" shadow="0">
      <root>
        <mxCell id="WIyWlLk6GJQsqaUBKTNV-0" />
        <mxCell id="WIyWlLk6GJQsqaUBKTNV-1" parent="WIyWlLk6GJQsqaUBKTNV-0" />
        <mxCell id="RmwvAKCOpkevOdC7m3rw-8" value="QLSieuThiMini" style="swimlane;fontStyle=1;align=center;verticalAlign=top;childLayout=stackLayout;horizontal=1;startSize=26;horizontalStack=0;resizeParent=1;resizeParentMax=0;resizeLast=0;collapsible=1;marginBottom=0;whiteSpace=wrap;html=1;fillColor=#D5E8D4;" vertex="1" parent="WIyWlLk6GJQsqaUBKTNV-1">
          <mxGeometry x="522" y="337" width="173" height="347" as="geometry" />
        </mxCell>
        <mxCell id="RmwvAKCOpkevOdC7m3rw-9" value="+QuanLyNhaCungCap : ql1" style="text;strokeColor=none;fillColor=none;align=left;verticalAlign=top;spacingLeft=4;spacingRight=4;overflow=hidden;rotatable=0;points=[[0,0.5],[1,0.5]];portConstraint=eastwest;whiteSpace=wrap;html=1;" vertex="1" parent="RmwvAKCOpkevOdC7m3rw-8">
          <mxGeometry y="26" width="173" height="26" as="geometry" />
        </mxCell>
        <mxCell id="RmwvAKCOpkevOdC7m3rw-15" value="+QuanLyKhachHang : ql3" style="text;strokeColor=none;fillColor=none;align=left;verticalAlign=top;spacingLeft=4;spacingRight=4;overflow=hidden;rotatable=0;points=[[0,0.5],[1,0.5]];portConstraint=eastwest;whiteSpace=wrap;html=1;" vertex="1" parent="RmwvAKCOpkevOdC7m3rw-8">
          <mxGeometry y="52" width="173" height="26" as="geometry" />
        </mxCell>
        <mxCell id="RmwvAKCOpkevOdC7m3rw-13" value="+QuanLyNhanVien : ql2&lt;span style=&quot;white-space: pre;&quot;&gt;&#x9;&lt;/span&gt;" style="text;strokeColor=none;fillColor=none;align=left;verticalAlign=top;spacingLeft=4;spacingRight=4;overflow=hidden;rotatable=0;points=[[0,0.5],[1,0.5]];portConstraint=eastwest;whiteSpace=wrap;html=1;" vertex="1" parent="RmwvAKCOpkevOdC7m3rw-8">
          <mxGeometry y="78" width="173" height="26" as="geometry" />
        </mxCell>
        <mxCell id="RmwvAKCOpkevOdC7m3rw-16" value="+QuanLySanPham : ql4" style="text;strokeColor=none;fillColor=none;align=left;verticalAlign=top;spacingLeft=4;spacingRight=4;overflow=hidden;rotatable=0;points=[[0,0.5],[1,0.5]];portConstraint=eastwest;whiteSpace=wrap;html=1;" vertex="1" parent="RmwvAKCOpkevOdC7m3rw-8">
          <mxGeometry y="104" width="173" height="26" as="geometry" />
        </mxCell>
        <mxCell id="RmwvAKCOpkevOdC7m3rw-17" value="+QuanLyHoaDon : ql5" style="text;strokeColor=none;fillColor=none;align=left;verticalAlign=top;spacingLeft=4;spacingRight=4;overflow=hidden;rotatable=0;points=[[0,0.5],[1,0.5]];portConstraint=eastwest;whiteSpace=wrap;html=1;" vertex="1" parent="RmwvAKCOpkevOdC7m3rw-8">
          <mxGeometry y="130" width="173" height="26" as="geometry" />
        </mxCell>
        <mxCell id="RmwvAKCOpkevOdC7m3rw-18" value="+QuanLyPhieuNhapHang: ql6" style="text;strokeColor=none;fillColor=none;align=left;verticalAlign=top;spacingLeft=4;spacingRight=4;overflow=hidden;rotatable=0;points=[[0,0.5],[1,0.5]];portConstraint=eastwest;whiteSpace=wrap;html=1;" vertex="1" parent="RmwvAKCOpkevOdC7m3rw-8">
          <mxGeometry y="156" width="173" height="26" as="geometry" />
        </mxCell>
        <mxCell id="RmwvAKCOpkevOdC7m3rw-10" value="" style="line;strokeWidth=1;fillColor=none;align=left;verticalAlign=middle;spacingTop=-1;spacingLeft=3;spacingRight=3;rotatable=0;labelPosition=right;points=[];portConstraint=eastwest;strokeColor=inherit;" vertex="1" parent="RmwvAKCOpkevOdC7m3rw-8">
          <mxGeometry y="182" width="173" height="9" as="geometry" />
        </mxCell>
        <mxCell id="RmwvAKCOpkevOdC7m3rw-11" value="+ ql1.menu()&lt;div&gt;&lt;br&gt;&lt;/div&gt;" style="text;strokeColor=none;fillColor=none;align=left;verticalAlign=top;spacingLeft=4;spacingRight=4;overflow=hidden;rotatable=0;points=[[0,0.5],[1,0.5]];portConstraint=eastwest;whiteSpace=wrap;html=1;" vertex="1" parent="RmwvAKCOpkevOdC7m3rw-8">
          <mxGeometry y="191" width="173" height="26" as="geometry" />
        </mxCell>
        <mxCell id="RmwvAKCOpkevOdC7m3rw-19" value="+ ql2.menu()&lt;div&gt;&lt;br&gt;&lt;/div&gt;" style="text;strokeColor=none;fillColor=none;align=left;verticalAlign=top;spacingLeft=4;spacingRight=4;overflow=hidden;rotatable=0;points=[[0,0.5],[1,0.5]];portConstraint=eastwest;whiteSpace=wrap;html=1;" vertex="1" parent="RmwvAKCOpkevOdC7m3rw-8">
          <mxGeometry y="217" width="173" height="26" as="geometry" />
        </mxCell>
        <mxCell id="RmwvAKCOpkevOdC7m3rw-20" value="+ ql3.menu()&lt;div&gt;&lt;br&gt;&lt;/div&gt;" style="text;strokeColor=none;fillColor=none;align=left;verticalAlign=top;spacingLeft=4;spacingRight=4;overflow=hidden;rotatable=0;points=[[0,0.5],[1,0.5]];portConstraint=eastwest;whiteSpace=wrap;html=1;" vertex="1" parent="RmwvAKCOpkevOdC7m3rw-8">
          <mxGeometry y="243" width="173" height="26" as="geometry" />
        </mxCell>
        <mxCell id="RmwvAKCOpkevOdC7m3rw-21" value="+ ql4.menu()&lt;div&gt;&lt;br&gt;&lt;/div&gt;" style="text;strokeColor=none;fillColor=none;align=left;verticalAlign=top;spacingLeft=4;spacingRight=4;overflow=hidden;rotatable=0;points=[[0,0.5],[1,0.5]];portConstraint=eastwest;whiteSpace=wrap;html=1;" vertex="1" parent="RmwvAKCOpkevOdC7m3rw-8">
          <mxGeometry y="269" width="173" height="26" as="geometry" />
        </mxCell>
        <mxCell id="RmwvAKCOpkevOdC7m3rw-22" value="+ ql5.menu()&lt;div&gt;&lt;br&gt;&lt;/div&gt;" style="text;strokeColor=none;fillColor=none;align=left;verticalAlign=top;spacingLeft=4;spacingRight=4;overflow=hidden;rotatable=0;points=[[0,0.5],[1,0.5]];portConstraint=eastwest;whiteSpace=wrap;html=1;" vertex="1" parent="RmwvAKCOpkevOdC7m3rw-8">
          <mxGeometry y="295" width="173" height="26" as="geometry" />
        </mxCell>
        <mxCell id="RmwvAKCOpkevOdC7m3rw-23" value="+ ql6.menu()&lt;div&gt;&lt;br&gt;&lt;/div&gt;" style="text;strokeColor=none;fillColor=none;align=left;verticalAlign=top;spacingLeft=4;spacingRight=4;overflow=hidden;rotatable=0;points=[[0,0.5],[1,0.5]];portConstraint=eastwest;whiteSpace=wrap;html=1;" vertex="1" parent="RmwvAKCOpkevOdC7m3rw-8">
          <mxGeometry y="321" width="173" height="26" as="geometry" />
        </mxCell>
        <mxCell id="RmwvAKCOpkevOdC7m3rw-24" value="" style="endArrow=diamondThin;endFill=1;endSize=24;html=1;rounded=0;exitX=0.453;exitY=0.957;exitDx=0;exitDy=0;exitPerimeter=0;entryX=0.25;entryY=0;entryDx=0;entryDy=0;" edge="1" parent="WIyWlLk6GJQsqaUBKTNV-1" source="RmwvAKCOpkevOdC7m3rw-28" target="RmwvAKCOpkevOdC7m3rw-8">
          <mxGeometry width="160" relative="1" as="geometry">
            <mxPoint x="417" y="142" as="sourcePoint" />
            <mxPoint x="546" y="310" as="targetPoint" />
          </mxGeometry>
        </mxCell>
        <mxCell id="RmwvAKCOpkevOdC7m3rw-25" value="QuanLyNhaCungCap" style="swimlane;fontStyle=1;align=center;verticalAlign=top;childLayout=stackLayout;horizontal=1;startSize=26;horizontalStack=0;resizeParent=1;resizeParentMax=0;resizeLast=0;collapsible=1;marginBottom=0;whiteSpace=wrap;html=1;fillColor=#C3ABD0;" vertex="1" parent="WIyWlLk6GJQsqaUBKTNV-1">
          <mxGeometry x="341" y="122" width="160" height="86" as="geometry" />
        </mxCell>
        <mxCell id="RmwvAKCOpkevOdC7m3rw-26" value="- dsncc: DSNhaCungCap" style="text;strokeColor=none;fillColor=none;align=left;verticalAlign=top;spacingLeft=4;spacingRight=4;overflow=hidden;rotatable=0;points=[[0,0.5],[1,0.5]];portConstraint=eastwest;whiteSpace=wrap;html=1;" vertex="1" parent="RmwvAKCOpkevOdC7m3rw-25">
          <mxGeometry y="26" width="160" height="26" as="geometry" />
        </mxCell>
        <mxCell id="RmwvAKCOpkevOdC7m3rw-27" value="" style="line;strokeWidth=1;fillColor=none;align=left;verticalAlign=middle;spacingTop=-1;spacingLeft=3;spacingRight=3;rotatable=0;labelPosition=right;points=[];portConstraint=eastwest;strokeColor=inherit;" vertex="1" parent="RmwvAKCOpkevOdC7m3rw-25">
          <mxGeometry y="52" width="160" height="8" as="geometry" />
        </mxCell>
        <mxCell id="RmwvAKCOpkevOdC7m3rw-28" value="+ menu()" style="text;strokeColor=none;fillColor=none;align=left;verticalAlign=top;spacingLeft=4;spacingRight=4;overflow=hidden;rotatable=0;points=[[0,0.5],[1,0.5]];portConstraint=eastwest;whiteSpace=wrap;html=1;" vertex="1" parent="RmwvAKCOpkevOdC7m3rw-25">
          <mxGeometry y="60" width="160" height="26" as="geometry" />
        </mxCell>
        <mxCell id="RmwvAKCOpkevOdC7m3rw-29" value="" style="endArrow=diamondThin;endFill=1;endSize=24;html=1;rounded=0;entryX=0.775;entryY=-0.004;entryDx=0;entryDy=0;exitX=0.434;exitY=0.874;exitDx=0;exitDy=0;exitPerimeter=0;entryPerimeter=0;" edge="1" parent="WIyWlLk6GJQsqaUBKTNV-1" source="RmwvAKCOpkevOdC7m3rw-33" target="RmwvAKCOpkevOdC7m3rw-8">
          <mxGeometry width="160" relative="1" as="geometry">
            <mxPoint x="877" y="191" as="sourcePoint" />
            <mxPoint x="728" y="293" as="targetPoint" />
          </mxGeometry>
        </mxCell>
        <mxCell id="RmwvAKCOpkevOdC7m3rw-30" value="QuanLyNhanVien" style="swimlane;fontStyle=1;align=center;verticalAlign=top;childLayout=stackLayout;horizontal=1;startSize=26;horizontalStack=0;resizeParent=1;resizeParentMax=0;resizeLast=0;collapsible=1;marginBottom=0;whiteSpace=wrap;html=1;fillColor=#C3ABD0;" vertex="1" parent="WIyWlLk6GJQsqaUBKTNV-1">
          <mxGeometry x="846" y="119" width="160" height="86" as="geometry" />
        </mxCell>
        <mxCell id="RmwvAKCOpkevOdC7m3rw-31" value="-dsnv: DSNhanVien" style="text;strokeColor=none;fillColor=none;align=left;verticalAlign=top;spacingLeft=4;spacingRight=4;overflow=hidden;rotatable=0;points=[[0,0.5],[1,0.5]];portConstraint=eastwest;whiteSpace=wrap;html=1;" vertex="1" parent="RmwvAKCOpkevOdC7m3rw-30">
          <mxGeometry y="26" width="160" height="26" as="geometry" />
        </mxCell>
        <mxCell id="RmwvAKCOpkevOdC7m3rw-32" value="" style="line;strokeWidth=1;fillColor=none;align=left;verticalAlign=middle;spacingTop=-1;spacingLeft=3;spacingRight=3;rotatable=0;labelPosition=right;points=[];portConstraint=eastwest;strokeColor=inherit;" vertex="1" parent="RmwvAKCOpkevOdC7m3rw-30">
          <mxGeometry y="52" width="160" height="8" as="geometry" />
        </mxCell>
        <mxCell id="RmwvAKCOpkevOdC7m3rw-33" value="+ menu()" style="text;strokeColor=none;fillColor=none;align=left;verticalAlign=top;spacingLeft=4;spacingRight=4;overflow=hidden;rotatable=0;points=[[0,0.5],[1,0.5]];portConstraint=eastwest;whiteSpace=wrap;html=1;" vertex="1" parent="RmwvAKCOpkevOdC7m3rw-30">
          <mxGeometry y="60" width="160" height="26" as="geometry" />
        </mxCell>
        <mxCell id="RmwvAKCOpkevOdC7m3rw-34" value="" style="endArrow=diamondThin;endFill=1;endSize=24;html=1;rounded=0;entryX=1;entryY=0;entryDx=0;entryDy=0;exitX=0.465;exitY=1.038;exitDx=0;exitDy=0;exitPerimeter=0;" edge="1" parent="WIyWlLk6GJQsqaUBKTNV-1" source="RmwvAKCOpkevOdC7m3rw-38" target="RmwvAKCOpkevOdC7m3rw-8">
          <mxGeometry width="160" relative="1" as="geometry">
            <mxPoint x="1156" y="280" as="sourcePoint" />
            <mxPoint x="982" y="389" as="targetPoint" />
          </mxGeometry>
        </mxCell>
        <mxCell id="RmwvAKCOpkevOdC7m3rw-35" value="QuanLyKhachHang" style="swimlane;fontStyle=1;align=center;verticalAlign=top;childLayout=stackLayout;horizontal=1;startSize=26;horizontalStack=0;resizeParent=1;resizeParentMax=0;resizeLast=0;collapsible=1;marginBottom=0;whiteSpace=wrap;html=1;fillColor=#C3ABD0;" vertex="1" parent="WIyWlLk6GJQsqaUBKTNV-1">
          <mxGeometry x="1020" y="116" width="160" height="86" as="geometry" />
        </mxCell>
        <mxCell id="RmwvAKCOpkevOdC7m3rw-36" value="-dsnv: DSKhachHang" style="text;strokeColor=none;fillColor=none;align=left;verticalAlign=top;spacingLeft=4;spacingRight=4;overflow=hidden;rotatable=0;points=[[0,0.5],[1,0.5]];portConstraint=eastwest;whiteSpace=wrap;html=1;" vertex="1" parent="RmwvAKCOpkevOdC7m3rw-35">
          <mxGeometry y="26" width="160" height="26" as="geometry" />
        </mxCell>
        <mxCell id="RmwvAKCOpkevOdC7m3rw-37" value="" style="line;strokeWidth=1;fillColor=none;align=left;verticalAlign=middle;spacingTop=-1;spacingLeft=3;spacingRight=3;rotatable=0;labelPosition=right;points=[];portConstraint=eastwest;strokeColor=inherit;" vertex="1" parent="RmwvAKCOpkevOdC7m3rw-35">
          <mxGeometry y="52" width="160" height="8" as="geometry" />
        </mxCell>
        <mxCell id="RmwvAKCOpkevOdC7m3rw-38" value="+ menu()" style="text;strokeColor=none;fillColor=none;align=left;verticalAlign=top;spacingLeft=4;spacingRight=4;overflow=hidden;rotatable=0;points=[[0,0.5],[1,0.5]];portConstraint=eastwest;whiteSpace=wrap;html=1;" vertex="1" parent="RmwvAKCOpkevOdC7m3rw-35">
          <mxGeometry y="60" width="160" height="26" as="geometry" />
        </mxCell>
        <mxCell id="RmwvAKCOpkevOdC7m3rw-39" value="" style="endArrow=diamondThin;endFill=1;endSize=24;html=1;rounded=0;exitX=0.434;exitY=0.874;exitDx=0;exitDy=0;exitPerimeter=0;entryX=0;entryY=0;entryDx=0;entryDy=0;" edge="1" parent="WIyWlLk6GJQsqaUBKTNV-1" source="RmwvAKCOpkevOdC7m3rw-43" target="RmwvAKCOpkevOdC7m3rw-8">
          <mxGeometry width="160" relative="1" as="geometry">
            <mxPoint x="221" y="263" as="sourcePoint" />
            <mxPoint x="538" y="317" as="targetPoint" />
          </mxGeometry>
        </mxCell>
        <mxCell id="RmwvAKCOpkevOdC7m3rw-40" value="QuanLySanPham" style="swimlane;fontStyle=1;align=center;verticalAlign=top;childLayout=stackLayout;horizontal=1;startSize=26;horizontalStack=0;resizeParent=1;resizeParentMax=0;resizeLast=0;collapsible=1;marginBottom=0;whiteSpace=wrap;html=1;fillColor=#C3ABD0;" vertex="1" parent="WIyWlLk6GJQsqaUBKTNV-1">
          <mxGeometry x="164" y="122" width="160" height="86" as="geometry" />
        </mxCell>
        <mxCell id="RmwvAKCOpkevOdC7m3rw-41" value="-dsnv: DSSanPham&lt;div&gt;&lt;br&gt;&lt;/div&gt;" style="text;strokeColor=none;fillColor=none;align=left;verticalAlign=top;spacingLeft=4;spacingRight=4;overflow=hidden;rotatable=0;points=[[0,0.5],[1,0.5]];portConstraint=eastwest;whiteSpace=wrap;html=1;" vertex="1" parent="RmwvAKCOpkevOdC7m3rw-40">
          <mxGeometry y="26" width="160" height="26" as="geometry" />
        </mxCell>
        <mxCell id="RmwvAKCOpkevOdC7m3rw-42" value="" style="line;strokeWidth=1;fillColor=none;align=left;verticalAlign=middle;spacingTop=-1;spacingLeft=3;spacingRight=3;rotatable=0;labelPosition=right;points=[];portConstraint=eastwest;strokeColor=inherit;" vertex="1" parent="RmwvAKCOpkevOdC7m3rw-40">
          <mxGeometry y="52" width="160" height="8" as="geometry" />
        </mxCell>
        <mxCell id="RmwvAKCOpkevOdC7m3rw-43" value="+ menu()" style="text;strokeColor=none;fillColor=none;align=left;verticalAlign=top;spacingLeft=4;spacingRight=4;overflow=hidden;rotatable=0;points=[[0,0.5],[1,0.5]];portConstraint=eastwest;whiteSpace=wrap;html=1;" vertex="1" parent="RmwvAKCOpkevOdC7m3rw-40">
          <mxGeometry y="60" width="160" height="26" as="geometry" />
        </mxCell>
        <mxCell id="RmwvAKCOpkevOdC7m3rw-44" value="" style="endArrow=diamondThin;endFill=1;endSize=24;html=1;rounded=0;exitX=0.434;exitY=0.874;exitDx=0;exitDy=0;exitPerimeter=0;entryX=0.5;entryY=0;entryDx=0;entryDy=0;" edge="1" parent="WIyWlLk6GJQsqaUBKTNV-1" source="RmwvAKCOpkevOdC7m3rw-48" target="RmwvAKCOpkevOdC7m3rw-8">
          <mxGeometry width="160" relative="1" as="geometry">
            <mxPoint x="650" y="277" as="sourcePoint" />
            <mxPoint x="544" y="328" as="targetPoint" />
          </mxGeometry>
        </mxCell>
        <mxCell id="RmwvAKCOpkevOdC7m3rw-45" value="QuanLyHoaDon" style="swimlane;fontStyle=1;align=center;verticalAlign=top;childLayout=stackLayout;horizontal=1;startSize=26;horizontalStack=0;resizeParent=1;resizeParentMax=0;resizeLast=0;collapsible=1;marginBottom=0;whiteSpace=wrap;html=1;fillColor=#C3ABD0;" vertex="1" parent="WIyWlLk6GJQsqaUBKTNV-1">
          <mxGeometry x="510" y="122" width="160" height="86" as="geometry" />
        </mxCell>
        <mxCell id="RmwvAKCOpkevOdC7m3rw-46" value="-dsnv: DSHoaDon&lt;div&gt;&lt;br&gt;&lt;/div&gt;" style="text;strokeColor=none;fillColor=none;align=left;verticalAlign=top;spacingLeft=4;spacingRight=4;overflow=hidden;rotatable=0;points=[[0,0.5],[1,0.5]];portConstraint=eastwest;whiteSpace=wrap;html=1;" vertex="1" parent="RmwvAKCOpkevOdC7m3rw-45">
          <mxGeometry y="26" width="160" height="26" as="geometry" />
        </mxCell>
        <mxCell id="RmwvAKCOpkevOdC7m3rw-47" value="" style="line;strokeWidth=1;fillColor=none;align=left;verticalAlign=middle;spacingTop=-1;spacingLeft=3;spacingRight=3;rotatable=0;labelPosition=right;points=[];portConstraint=eastwest;strokeColor=inherit;" vertex="1" parent="RmwvAKCOpkevOdC7m3rw-45">
          <mxGeometry y="52" width="160" height="8" as="geometry" />
        </mxCell>
        <mxCell id="RmwvAKCOpkevOdC7m3rw-48" value="+ menu()" style="text;strokeColor=none;fillColor=none;align=left;verticalAlign=top;spacingLeft=4;spacingRight=4;overflow=hidden;rotatable=0;points=[[0,0.5],[1,0.5]];portConstraint=eastwest;whiteSpace=wrap;html=1;" vertex="1" parent="RmwvAKCOpkevOdC7m3rw-45">
          <mxGeometry y="60" width="160" height="26" as="geometry" />
        </mxCell>
        <mxCell id="RmwvAKCOpkevOdC7m3rw-49" value="" style="endArrow=diamondThin;endFill=1;endSize=24;html=1;rounded=0;exitX=0.434;exitY=0.874;exitDx=0;exitDy=0;exitPerimeter=0;entryX=0.601;entryY=0.004;entryDx=0;entryDy=0;entryPerimeter=0;" edge="1" parent="WIyWlLk6GJQsqaUBKTNV-1" source="RmwvAKCOpkevOdC7m3rw-53" target="RmwvAKCOpkevOdC7m3rw-8">
          <mxGeometry width="160" relative="1" as="geometry">
            <mxPoint x="824" y="274" as="sourcePoint" />
            <mxPoint x="632" y="238" as="targetPoint" />
          </mxGeometry>
        </mxCell>
        <mxCell id="RmwvAKCOpkevOdC7m3rw-50" value="QuanLyPhieuNhapHang" style="swimlane;fontStyle=1;align=center;verticalAlign=top;childLayout=stackLayout;horizontal=1;startSize=26;horizontalStack=0;resizeParent=1;resizeParentMax=0;resizeLast=0;collapsible=1;marginBottom=0;whiteSpace=wrap;html=1;fillColor=#C3ABD0;" vertex="1" parent="WIyWlLk6GJQsqaUBKTNV-1">
          <mxGeometry x="679" y="119" width="160" height="86" as="geometry" />
        </mxCell>
        <mxCell id="RmwvAKCOpkevOdC7m3rw-51" value="-dsnv: DSPhieuNhapHang&lt;div&gt;&lt;br&gt;&lt;/div&gt;" style="text;strokeColor=none;fillColor=none;align=left;verticalAlign=top;spacingLeft=4;spacingRight=4;overflow=hidden;rotatable=0;points=[[0,0.5],[1,0.5]];portConstraint=eastwest;whiteSpace=wrap;html=1;" vertex="1" parent="RmwvAKCOpkevOdC7m3rw-50">
          <mxGeometry y="26" width="160" height="26" as="geometry" />
        </mxCell>
        <mxCell id="RmwvAKCOpkevOdC7m3rw-52" value="" style="line;strokeWidth=1;fillColor=none;align=left;verticalAlign=middle;spacingTop=-1;spacingLeft=3;spacingRight=3;rotatable=0;labelPosition=right;points=[];portConstraint=eastwest;strokeColor=inherit;" vertex="1" parent="RmwvAKCOpkevOdC7m3rw-50">
          <mxGeometry y="52" width="160" height="8" as="geometry" />
        </mxCell>
        <mxCell id="RmwvAKCOpkevOdC7m3rw-53" value="+ menu()" style="text;strokeColor=none;fillColor=none;align=left;verticalAlign=top;spacingLeft=4;spacingRight=4;overflow=hidden;rotatable=0;points=[[0,0.5],[1,0.5]];portConstraint=eastwest;whiteSpace=wrap;html=1;" vertex="1" parent="RmwvAKCOpkevOdC7m3rw-50">
          <mxGeometry y="60" width="160" height="26" as="geometry" />
        </mxCell>
        <mxCell id="RmwvAKCOpkevOdC7m3rw-55" value="" style="endArrow=diamondThin;endFill=1;endSize=24;html=1;rounded=0;entryX=0.5;entryY=0;entryDx=0;entryDy=0;exitX=0.4;exitY=0.926;exitDx=0;exitDy=0;exitPerimeter=0;" edge="1" parent="WIyWlLk6GJQsqaUBKTNV-1" source="CawzFOfw7iv2VanNzyGM-224" target="RmwvAKCOpkevOdC7m3rw-40">
          <mxGeometry width="160" relative="1" as="geometry">
            <mxPoint x="149" y="-201" as="sourcePoint" />
            <mxPoint x="462" y="-199" as="targetPoint" />
          </mxGeometry>
        </mxCell>
        <mxCell id="RmwvAKCOpkevOdC7m3rw-56" value="DSSanPham" style="swimlane;fontStyle=1;align=center;verticalAlign=top;childLayout=stackLayout;horizontal=1;startSize=26;horizontalStack=0;resizeParent=1;resizeParentMax=0;resizeLast=0;collapsible=1;marginBottom=0;whiteSpace=wrap;html=1;fillColor=#A9C4EB;" vertex="1" parent="WIyWlLk6GJQsqaUBKTNV-1">
          <mxGeometry x="164" y="-320" width="160" height="346" as="geometry" />
        </mxCell>
        <mxCell id="RmwvAKCOpkevOdC7m3rw-57" value="&lt;div&gt;-dsSanPham: SanPham&lt;/div&gt;" style="text;strokeColor=none;fillColor=none;align=left;verticalAlign=top;spacingLeft=4;spacingRight=4;overflow=hidden;rotatable=0;points=[[0,0.5],[1,0.5]];portConstraint=eastwest;whiteSpace=wrap;html=1;" vertex="1" parent="RmwvAKCOpkevOdC7m3rw-56">
          <mxGeometry y="26" width="160" height="26" as="geometry" />
        </mxCell>
        <mxCell id="RmwvAKCOpkevOdC7m3rw-61" value="&lt;div&gt;-tongsoluongsanpham: int&amp;nbsp;&lt;/div&gt;" style="text;strokeColor=none;fillColor=none;align=left;verticalAlign=top;spacingLeft=4;spacingRight=4;overflow=hidden;rotatable=0;points=[[0,0.5],[1,0.5]];portConstraint=eastwest;whiteSpace=wrap;html=1;" vertex="1" parent="RmwvAKCOpkevOdC7m3rw-56">
          <mxGeometry y="52" width="160" height="26" as="geometry" />
        </mxCell>
        <mxCell id="RmwvAKCOpkevOdC7m3rw-62" value="&lt;div&gt;-giatritonkho: int&lt;/div&gt;" style="text;strokeColor=none;fillColor=none;align=left;verticalAlign=top;spacingLeft=4;spacingRight=4;overflow=hidden;rotatable=0;points=[[0,0.5],[1,0.5]];portConstraint=eastwest;whiteSpace=wrap;html=1;" vertex="1" parent="RmwvAKCOpkevOdC7m3rw-56">
          <mxGeometry y="78" width="160" height="26" as="geometry" />
        </mxCell>
        <mxCell id="RmwvAKCOpkevOdC7m3rw-63" value="&lt;div&gt;-ngaycapnhatcuoi: Date&lt;/div&gt;" style="text;strokeColor=none;fillColor=none;align=left;verticalAlign=top;spacingLeft=4;spacingRight=4;overflow=hidden;rotatable=0;points=[[0,0.5],[1,0.5]];portConstraint=eastwest;whiteSpace=wrap;html=1;" vertex="1" parent="RmwvAKCOpkevOdC7m3rw-56">
          <mxGeometry y="104" width="160" height="26" as="geometry" />
        </mxCell>
        <mxCell id="RmwvAKCOpkevOdC7m3rw-58" value="" style="line;strokeWidth=1;fillColor=none;align=left;verticalAlign=middle;spacingTop=-1;spacingLeft=3;spacingRight=3;rotatable=0;labelPosition=right;points=[];portConstraint=eastwest;strokeColor=inherit;" vertex="1" parent="RmwvAKCOpkevOdC7m3rw-56">
          <mxGeometry y="130" width="160" height="8" as="geometry" />
        </mxCell>
        <mxCell id="RmwvAKCOpkevOdC7m3rw-59" value="+ XemDssp()" style="text;strokeColor=none;fillColor=none;align=left;verticalAlign=top;spacingLeft=4;spacingRight=4;overflow=hidden;rotatable=0;points=[[0,0.5],[1,0.5]];portConstraint=eastwest;whiteSpace=wrap;html=1;" vertex="1" parent="RmwvAKCOpkevOdC7m3rw-56">
          <mxGeometry y="138" width="160" height="26" as="geometry" />
        </mxCell>
        <mxCell id="RmwvAKCOpkevOdC7m3rw-64" value="+ThemSp();" style="text;strokeColor=none;fillColor=none;align=left;verticalAlign=top;spacingLeft=4;spacingRight=4;overflow=hidden;rotatable=0;points=[[0,0.5],[1,0.5]];portConstraint=eastwest;whiteSpace=wrap;html=1;" vertex="1" parent="RmwvAKCOpkevOdC7m3rw-56">
          <mxGeometry y="164" width="160" height="26" as="geometry" />
        </mxCell>
        <mxCell id="RmwvAKCOpkevOdC7m3rw-65" value="+SuaSp()" style="text;strokeColor=none;fillColor=none;align=left;verticalAlign=top;spacingLeft=4;spacingRight=4;overflow=hidden;rotatable=0;points=[[0,0.5],[1,0.5]];portConstraint=eastwest;whiteSpace=wrap;html=1;" vertex="1" parent="RmwvAKCOpkevOdC7m3rw-56">
          <mxGeometry y="190" width="160" height="26" as="geometry" />
        </mxCell>
        <mxCell id="RmwvAKCOpkevOdC7m3rw-66" value="+XoaSp()" style="text;strokeColor=none;fillColor=none;align=left;verticalAlign=top;spacingLeft=4;spacingRight=4;overflow=hidden;rotatable=0;points=[[0,0.5],[1,0.5]];portConstraint=eastwest;whiteSpace=wrap;html=1;" vertex="1" parent="RmwvAKCOpkevOdC7m3rw-56">
          <mxGeometry y="216" width="160" height="26" as="geometry" />
        </mxCell>
        <mxCell id="RmwvAKCOpkevOdC7m3rw-67" value="+TimKiemSp()" style="text;strokeColor=none;fillColor=none;align=left;verticalAlign=top;spacingLeft=4;spacingRight=4;overflow=hidden;rotatable=0;points=[[0,0.5],[1,0.5]];portConstraint=eastwest;whiteSpace=wrap;html=1;" vertex="1" parent="RmwvAKCOpkevOdC7m3rw-56">
          <mxGeometry y="242" width="160" height="26" as="geometry" />
        </mxCell>
        <mxCell id="RmwvAKCOpkevOdC7m3rw-68" value="+ThongKeSp()" style="text;strokeColor=none;fillColor=none;align=left;verticalAlign=top;spacingLeft=4;spacingRight=4;overflow=hidden;rotatable=0;points=[[0,0.5],[1,0.5]];portConstraint=eastwest;whiteSpace=wrap;html=1;" vertex="1" parent="RmwvAKCOpkevOdC7m3rw-56">
          <mxGeometry y="268" width="160" height="26" as="geometry" />
        </mxCell>
        <mxCell id="CawzFOfw7iv2VanNzyGM-223" value="+docFile()" style="text;strokeColor=none;fillColor=none;align=left;verticalAlign=top;spacingLeft=4;spacingRight=4;overflow=hidden;rotatable=0;points=[[0,0.5],[1,0.5]];portConstraint=eastwest;whiteSpace=wrap;html=1;" vertex="1" parent="RmwvAKCOpkevOdC7m3rw-56">
          <mxGeometry y="294" width="160" height="26" as="geometry" />
        </mxCell>
        <mxCell id="CawzFOfw7iv2VanNzyGM-224" value="+ghiFile()" style="text;strokeColor=none;fillColor=none;align=left;verticalAlign=top;spacingLeft=4;spacingRight=4;overflow=hidden;rotatable=0;points=[[0,0.5],[1,0.5]];portConstraint=eastwest;whiteSpace=wrap;html=1;" vertex="1" parent="RmwvAKCOpkevOdC7m3rw-56">
          <mxGeometry y="320" width="160" height="26" as="geometry" />
        </mxCell>
        <mxCell id="RmwvAKCOpkevOdC7m3rw-69" value="" style="endArrow=diamondThin;endFill=1;endSize=24;html=1;rounded=0;entryX=0.5;entryY=0;entryDx=0;entryDy=0;exitX=0.504;exitY=1.011;exitDx=0;exitDy=0;exitPerimeter=0;" edge="1" parent="WIyWlLk6GJQsqaUBKTNV-1" source="CawzFOfw7iv2VanNzyGM-253" target="RmwvAKCOpkevOdC7m3rw-56">
          <mxGeometry width="160" relative="1" as="geometry">
            <mxPoint x="172.66321243523316" y="-560" as="sourcePoint" />
            <mxPoint x="168" y="-380" as="targetPoint" />
          </mxGeometry>
        </mxCell>
        <mxCell id="RmwvAKCOpkevOdC7m3rw-70" value="SanPham" style="swimlane;fontStyle=1;align=center;verticalAlign=top;childLayout=stackLayout;horizontal=1;startSize=26;horizontalStack=0;resizeParent=1;resizeParentMax=0;resizeLast=0;collapsible=1;marginBottom=0;whiteSpace=wrap;html=1;fillColor=#FFFFCC;" vertex="1" parent="WIyWlLk6GJQsqaUBKTNV-1">
          <mxGeometry x="-69" y="-827" width="160" height="398" as="geometry" />
        </mxCell>
        <mxCell id="RmwvAKCOpkevOdC7m3rw-74" value="#masp: int" style="text;strokeColor=none;fillColor=none;align=left;verticalAlign=top;spacingLeft=4;spacingRight=4;overflow=hidden;rotatable=0;points=[[0,0.5],[1,0.5]];portConstraint=eastwest;whiteSpace=wrap;html=1;fontStyle=1" vertex="1" parent="RmwvAKCOpkevOdC7m3rw-70">
          <mxGeometry y="26" width="160" height="26" as="geometry" />
        </mxCell>
        <mxCell id="RmwvAKCOpkevOdC7m3rw-83" value="#soluongnhaphang: int" style="text;strokeColor=none;fillColor=none;align=left;verticalAlign=top;spacingLeft=4;spacingRight=4;overflow=hidden;rotatable=0;points=[[0,0.5],[1,0.5]];portConstraint=eastwest;whiteSpace=wrap;html=1;" vertex="1" parent="RmwvAKCOpkevOdC7m3rw-70">
          <mxGeometry y="52" width="160" height="26" as="geometry" />
        </mxCell>
        <mxCell id="RmwvAKCOpkevOdC7m3rw-84" value="#tensp: String" style="text;strokeColor=none;fillColor=none;align=left;verticalAlign=top;spacingLeft=4;spacingRight=4;overflow=hidden;rotatable=0;points=[[0,0.5],[1,0.5]];portConstraint=eastwest;whiteSpace=wrap;html=1;" vertex="1" parent="RmwvAKCOpkevOdC7m3rw-70">
          <mxGeometry y="78" width="160" height="26" as="geometry" />
        </mxCell>
        <mxCell id="RmwvAKCOpkevOdC7m3rw-85" value="#loaisp: String" style="text;strokeColor=none;fillColor=none;align=left;verticalAlign=top;spacingLeft=4;spacingRight=4;overflow=hidden;rotatable=0;points=[[0,0.5],[1,0.5]];portConstraint=eastwest;whiteSpace=wrap;html=1;" vertex="1" parent="RmwvAKCOpkevOdC7m3rw-70">
          <mxGeometry y="104" width="160" height="26" as="geometry" />
        </mxCell>
        <mxCell id="RmwvAKCOpkevOdC7m3rw-87" value="#donGia: float" style="text;strokeColor=none;fillColor=none;align=left;verticalAlign=top;spacingLeft=4;spacingRight=4;overflow=hidden;rotatable=0;points=[[0,0.5],[1,0.5]];portConstraint=eastwest;whiteSpace=wrap;html=1;" vertex="1" parent="RmwvAKCOpkevOdC7m3rw-70">
          <mxGeometry y="130" width="160" height="26" as="geometry" />
        </mxCell>
        <mxCell id="CawzFOfw7iv2VanNzyGM-187" value="#DVT: String&amp;nbsp;" style="text;strokeColor=none;fillColor=none;align=left;verticalAlign=top;spacingLeft=4;spacingRight=4;overflow=hidden;rotatable=0;points=[[0,0.5],[1,0.5]];portConstraint=eastwest;whiteSpace=wrap;html=1;" vertex="1" parent="RmwvAKCOpkevOdC7m3rw-70">
          <mxGeometry y="156" width="160" height="26" as="geometry" />
        </mxCell>
        <mxCell id="CawzFOfw7iv2VanNzyGM-188" value="#noiSX: String&amp;nbsp;" style="text;strokeColor=none;fillColor=none;align=left;verticalAlign=top;spacingLeft=4;spacingRight=4;overflow=hidden;rotatable=0;points=[[0,0.5],[1,0.5]];portConstraint=eastwest;whiteSpace=wrap;html=1;" vertex="1" parent="RmwvAKCOpkevOdC7m3rw-70">
          <mxGeometry y="182" width="160" height="26" as="geometry" />
        </mxCell>
        <mxCell id="CawzFOfw7iv2VanNzyGM-189" value="#hang :String&amp;nbsp;" style="text;strokeColor=none;fillColor=none;align=left;verticalAlign=top;spacingLeft=4;spacingRight=4;overflow=hidden;rotatable=0;points=[[0,0.5],[1,0.5]];portConstraint=eastwest;whiteSpace=wrap;html=1;" vertex="1" parent="RmwvAKCOpkevOdC7m3rw-70">
          <mxGeometry y="208" width="160" height="26" as="geometry" />
        </mxCell>
        <mxCell id="RmwvAKCOpkevOdC7m3rw-88" value="#mota: String" style="text;strokeColor=none;fillColor=none;align=left;verticalAlign=top;spacingLeft=4;spacingRight=4;overflow=hidden;rotatable=0;points=[[0,0.5],[1,0.5]];portConstraint=eastwest;whiteSpace=wrap;html=1;" vertex="1" parent="RmwvAKCOpkevOdC7m3rw-70">
          <mxGeometry y="234" width="160" height="26" as="geometry" />
        </mxCell>
        <mxCell id="RmwvAKCOpkevOdC7m3rw-75" value="" style="line;strokeWidth=1;fillColor=none;align=left;verticalAlign=middle;spacingTop=-1;spacingLeft=3;spacingRight=3;rotatable=0;labelPosition=right;points=[];portConstraint=eastwest;strokeColor=inherit;" vertex="1" parent="RmwvAKCOpkevOdC7m3rw-70">
          <mxGeometry y="260" width="160" height="8" as="geometry" />
        </mxCell>
        <mxCell id="RmwvAKCOpkevOdC7m3rw-76" value="&lt;div&gt;+Getter/Setter&amp;nbsp;&lt;/div&gt;" style="text;strokeColor=none;fillColor=none;align=left;verticalAlign=top;spacingLeft=4;spacingRight=4;overflow=hidden;rotatable=0;points=[[0,0.5],[1,0.5]];portConstraint=eastwest;whiteSpace=wrap;html=1;" vertex="1" parent="RmwvAKCOpkevOdC7m3rw-70">
          <mxGeometry y="268" width="160" height="26" as="geometry" />
        </mxCell>
        <mxCell id="RmwvAKCOpkevOdC7m3rw-104" value="&lt;div&gt;+Constructor&lt;/div&gt;" style="text;strokeColor=none;fillColor=none;align=left;verticalAlign=top;spacingLeft=4;spacingRight=4;overflow=hidden;rotatable=0;points=[[0,0.5],[1,0.5]];portConstraint=eastwest;whiteSpace=wrap;html=1;" vertex="1" parent="RmwvAKCOpkevOdC7m3rw-70">
          <mxGeometry y="294" width="160" height="26" as="geometry" />
        </mxCell>
        <mxCell id="RmwvAKCOpkevOdC7m3rw-102" value="+Nhap()" style="text;strokeColor=none;fillColor=none;align=left;verticalAlign=top;spacingLeft=4;spacingRight=4;overflow=hidden;rotatable=0;points=[[0,0.5],[1,0.5]];portConstraint=eastwest;whiteSpace=wrap;html=1;" vertex="1" parent="RmwvAKCOpkevOdC7m3rw-70">
          <mxGeometry y="320" width="160" height="26" as="geometry" />
        </mxCell>
        <mxCell id="RmwvAKCOpkevOdC7m3rw-103" value="+Xuat()" style="text;strokeColor=none;fillColor=none;align=left;verticalAlign=top;spacingLeft=4;spacingRight=4;overflow=hidden;rotatable=0;points=[[0,0.5],[1,0.5]];portConstraint=eastwest;whiteSpace=wrap;html=1;" vertex="1" parent="RmwvAKCOpkevOdC7m3rw-70">
          <mxGeometry y="346" width="160" height="26" as="geometry" />
        </mxCell>
        <mxCell id="CawzFOfw7iv2VanNzyGM-253" value="+kiemTraKhoHang()" style="text;strokeColor=none;fillColor=none;align=left;verticalAlign=top;spacingLeft=4;spacingRight=4;overflow=hidden;rotatable=0;points=[[0,0.5],[1,0.5]];portConstraint=eastwest;whiteSpace=wrap;html=1;" vertex="1" parent="RmwvAKCOpkevOdC7m3rw-70">
          <mxGeometry y="372" width="160" height="26" as="geometry" />
        </mxCell>
        <mxCell id="RmwvAKCOpkevOdC7m3rw-91" value="ThucPham" style="swimlane;fontStyle=1;align=center;verticalAlign=top;childLayout=stackLayout;horizontal=1;startSize=26;horizontalStack=0;resizeParent=1;resizeParentMax=0;resizeLast=0;collapsible=1;marginBottom=0;whiteSpace=wrap;html=1;fillColor=#F19C99;" vertex="1" parent="WIyWlLk6GJQsqaUBKTNV-1">
          <mxGeometry x="-291" y="-1262" width="160" height="294" as="geometry" />
        </mxCell>
        <mxCell id="RmwvAKCOpkevOdC7m3rw-92" value="-ngaysanxuat: Date" style="text;strokeColor=none;fillColor=none;align=left;verticalAlign=top;spacingLeft=4;spacingRight=4;overflow=hidden;rotatable=0;points=[[0,0.5],[1,0.5]];portConstraint=eastwest;whiteSpace=wrap;html=1;" vertex="1" parent="RmwvAKCOpkevOdC7m3rw-91">
          <mxGeometry y="26" width="160" height="26" as="geometry" />
        </mxCell>
        <mxCell id="CawzFOfw7iv2VanNzyGM-199" value="-hansudung: Date" style="text;strokeColor=none;fillColor=none;align=left;verticalAlign=top;spacingLeft=4;spacingRight=4;overflow=hidden;rotatable=0;points=[[0,0.5],[1,0.5]];portConstraint=eastwest;whiteSpace=wrap;html=1;" vertex="1" parent="RmwvAKCOpkevOdC7m3rw-91">
          <mxGeometry y="52" width="160" height="26" as="geometry" />
        </mxCell>
        <mxCell id="CawzFOfw7iv2VanNzyGM-198" value="-loaiThucPham : String&amp;nbsp;" style="text;strokeColor=none;fillColor=none;align=left;verticalAlign=top;spacingLeft=4;spacingRight=4;overflow=hidden;rotatable=0;points=[[0,0.5],[1,0.5]];portConstraint=eastwest;whiteSpace=wrap;html=1;" vertex="1" parent="RmwvAKCOpkevOdC7m3rw-91">
          <mxGeometry y="78" width="160" height="26" as="geometry" />
        </mxCell>
        <mxCell id="CawzFOfw7iv2VanNzyGM-200" value="-khoiluongtinh: float" style="text;strokeColor=none;fillColor=none;align=left;verticalAlign=top;spacingLeft=4;spacingRight=4;overflow=hidden;rotatable=0;points=[[0,0.5],[1,0.5]];portConstraint=eastwest;whiteSpace=wrap;html=1;" vertex="1" parent="RmwvAKCOpkevOdC7m3rw-91">
          <mxGeometry y="104" width="160" height="26" as="geometry" />
        </mxCell>
        <mxCell id="RmwvAKCOpkevOdC7m3rw-99" value="" style="line;strokeWidth=1;fillColor=none;align=left;verticalAlign=middle;spacingTop=-1;spacingLeft=3;spacingRight=3;rotatable=0;labelPosition=right;points=[];portConstraint=eastwest;strokeColor=inherit;" vertex="1" parent="RmwvAKCOpkevOdC7m3rw-91">
          <mxGeometry y="130" width="160" height="8" as="geometry" />
        </mxCell>
        <mxCell id="RmwvAKCOpkevOdC7m3rw-100" value="+Constructor&lt;div&gt;&lt;br&gt;&lt;/div&gt;" style="text;strokeColor=none;fillColor=none;align=left;verticalAlign=top;spacingLeft=4;spacingRight=4;overflow=hidden;rotatable=0;points=[[0,0.5],[1,0.5]];portConstraint=eastwest;whiteSpace=wrap;html=1;" vertex="1" parent="RmwvAKCOpkevOdC7m3rw-91">
          <mxGeometry y="138" width="160" height="26" as="geometry" />
        </mxCell>
        <mxCell id="CawzFOfw7iv2VanNzyGM-201" value="+getter/setter" style="text;strokeColor=none;fillColor=none;align=left;verticalAlign=top;spacingLeft=4;spacingRight=4;overflow=hidden;rotatable=0;points=[[0,0.5],[1,0.5]];portConstraint=eastwest;whiteSpace=wrap;html=1;" vertex="1" parent="RmwvAKCOpkevOdC7m3rw-91">
          <mxGeometry y="164" width="160" height="26" as="geometry" />
        </mxCell>
        <mxCell id="CawzFOfw7iv2VanNzyGM-202" value="&lt;div&gt;+nhap()&lt;/div&gt;" style="text;strokeColor=none;fillColor=none;align=left;verticalAlign=top;spacingLeft=4;spacingRight=4;overflow=hidden;rotatable=0;points=[[0,0.5],[1,0.5]];portConstraint=eastwest;whiteSpace=wrap;html=1;" vertex="1" parent="RmwvAKCOpkevOdC7m3rw-91">
          <mxGeometry y="190" width="160" height="26" as="geometry" />
        </mxCell>
        <mxCell id="CawzFOfw7iv2VanNzyGM-203" value="&lt;div&gt;+xuat()&lt;/div&gt;" style="text;strokeColor=none;fillColor=none;align=left;verticalAlign=top;spacingLeft=4;spacingRight=4;overflow=hidden;rotatable=0;points=[[0,0.5],[1,0.5]];portConstraint=eastwest;whiteSpace=wrap;html=1;" vertex="1" parent="RmwvAKCOpkevOdC7m3rw-91">
          <mxGeometry y="216" width="160" height="26" as="geometry" />
        </mxCell>
        <mxCell id="CawzFOfw7iv2VanNzyGM-204" value="&lt;div&gt;+tinhGia1ThucPham()&lt;/div&gt;" style="text;strokeColor=none;fillColor=none;align=left;verticalAlign=top;spacingLeft=4;spacingRight=4;overflow=hidden;rotatable=0;points=[[0,0.5],[1,0.5]];portConstraint=eastwest;whiteSpace=wrap;html=1;" vertex="1" parent="RmwvAKCOpkevOdC7m3rw-91">
          <mxGeometry y="242" width="160" height="26" as="geometry" />
        </mxCell>
        <mxCell id="CawzFOfw7iv2VanNzyGM-205" value="&lt;div&gt;+tinhHanSuDung()&lt;/div&gt;" style="text;strokeColor=none;fillColor=none;align=left;verticalAlign=top;spacingLeft=4;spacingRight=4;overflow=hidden;rotatable=0;points=[[0,0.5],[1,0.5]];portConstraint=eastwest;whiteSpace=wrap;html=1;" vertex="1" parent="RmwvAKCOpkevOdC7m3rw-91">
          <mxGeometry y="268" width="160" height="26" as="geometry" />
        </mxCell>
        <mxCell id="RmwvAKCOpkevOdC7m3rw-101" value="Extends" style="endArrow=block;endSize=16;endFill=0;html=1;rounded=0;entryX=0.25;entryY=0;entryDx=0;entryDy=0;exitX=0.486;exitY=0.926;exitDx=0;exitDy=0;exitPerimeter=0;" edge="1" parent="WIyWlLk6GJQsqaUBKTNV-1" source="CawzFOfw7iv2VanNzyGM-205" target="RmwvAKCOpkevOdC7m3rw-70">
          <mxGeometry width="160" relative="1" as="geometry">
            <mxPoint x="-39" y="-1027" as="sourcePoint" />
            <mxPoint x="177" y="-808" as="targetPoint" />
          </mxGeometry>
        </mxCell>
        <mxCell id="RmwvAKCOpkevOdC7m3rw-105" value="GiaDung" style="swimlane;fontStyle=1;align=center;verticalAlign=top;childLayout=stackLayout;horizontal=1;startSize=26;horizontalStack=0;resizeParent=1;resizeParentMax=0;resizeLast=0;collapsible=1;marginBottom=0;whiteSpace=wrap;html=1;fillColor=#F19C99;" vertex="1" parent="WIyWlLk6GJQsqaUBKTNV-1">
          <mxGeometry x="21" y="-1324" width="160" height="216" as="geometry" />
        </mxCell>
        <mxCell id="k_KIprdyxPkTI1ycHlRb-0" value="-thuonghieu: String" style="text;strokeColor=none;fillColor=none;align=left;verticalAlign=top;spacingLeft=4;spacingRight=4;overflow=hidden;rotatable=0;points=[[0,0.5],[1,0.5]];portConstraint=eastwest;whiteSpace=wrap;html=1;" vertex="1" parent="RmwvAKCOpkevOdC7m3rw-105">
          <mxGeometry y="26" width="160" height="26" as="geometry" />
        </mxCell>
        <mxCell id="CawzFOfw7iv2VanNzyGM-222" value="-baohanh: int" style="text;strokeColor=none;fillColor=none;align=left;verticalAlign=top;spacingLeft=4;spacingRight=4;overflow=hidden;rotatable=0;points=[[0,0.5],[1,0.5]];portConstraint=eastwest;whiteSpace=wrap;html=1;" vertex="1" parent="RmwvAKCOpkevOdC7m3rw-105">
          <mxGeometry y="52" width="160" height="26" as="geometry" />
        </mxCell>
        <mxCell id="RmwvAKCOpkevOdC7m3rw-107" value="" style="line;strokeWidth=1;fillColor=none;align=left;verticalAlign=middle;spacingTop=-1;spacingLeft=3;spacingRight=3;rotatable=0;labelPosition=right;points=[];portConstraint=eastwest;strokeColor=inherit;" vertex="1" parent="RmwvAKCOpkevOdC7m3rw-105">
          <mxGeometry y="78" width="160" height="8" as="geometry" />
        </mxCell>
        <mxCell id="RmwvAKCOpkevOdC7m3rw-108" value="+Construtor" style="text;strokeColor=none;fillColor=none;align=left;verticalAlign=top;spacingLeft=4;spacingRight=4;overflow=hidden;rotatable=0;points=[[0,0.5],[1,0.5]];portConstraint=eastwest;whiteSpace=wrap;html=1;" vertex="1" parent="RmwvAKCOpkevOdC7m3rw-105">
          <mxGeometry y="86" width="160" height="26" as="geometry" />
        </mxCell>
        <mxCell id="CawzFOfw7iv2VanNzyGM-211" value="+getter/setter" style="text;strokeColor=none;fillColor=none;align=left;verticalAlign=top;spacingLeft=4;spacingRight=4;overflow=hidden;rotatable=0;points=[[0,0.5],[1,0.5]];portConstraint=eastwest;whiteSpace=wrap;html=1;" vertex="1" parent="RmwvAKCOpkevOdC7m3rw-105">
          <mxGeometry y="112" width="160" height="26" as="geometry" />
        </mxCell>
        <mxCell id="CawzFOfw7iv2VanNzyGM-212" value="+nhap()" style="text;strokeColor=none;fillColor=none;align=left;verticalAlign=top;spacingLeft=4;spacingRight=4;overflow=hidden;rotatable=0;points=[[0,0.5],[1,0.5]];portConstraint=eastwest;whiteSpace=wrap;html=1;" vertex="1" parent="RmwvAKCOpkevOdC7m3rw-105">
          <mxGeometry y="138" width="160" height="26" as="geometry" />
        </mxCell>
        <mxCell id="CawzFOfw7iv2VanNzyGM-213" value="+xuat()" style="text;strokeColor=none;fillColor=none;align=left;verticalAlign=top;spacingLeft=4;spacingRight=4;overflow=hidden;rotatable=0;points=[[0,0.5],[1,0.5]];portConstraint=eastwest;whiteSpace=wrap;html=1;" vertex="1" parent="RmwvAKCOpkevOdC7m3rw-105">
          <mxGeometry y="164" width="160" height="26" as="geometry" />
        </mxCell>
        <mxCell id="CawzFOfw7iv2VanNzyGM-214" value="+tinhGia1GiaDung()" style="text;strokeColor=none;fillColor=none;align=left;verticalAlign=top;spacingLeft=4;spacingRight=4;overflow=hidden;rotatable=0;points=[[0,0.5],[1,0.5]];portConstraint=eastwest;whiteSpace=wrap;html=1;" vertex="1" parent="RmwvAKCOpkevOdC7m3rw-105">
          <mxGeometry y="190" width="160" height="26" as="geometry" />
        </mxCell>
        <mxCell id="RmwvAKCOpkevOdC7m3rw-109" value="Extends" style="endArrow=block;endSize=16;endFill=0;html=1;rounded=0;exitX=0.346;exitY=1.135;exitDx=0;exitDy=0;exitPerimeter=0;entryX=0.664;entryY=0.006;entryDx=0;entryDy=0;entryPerimeter=0;" edge="1" parent="WIyWlLk6GJQsqaUBKTNV-1" source="CawzFOfw7iv2VanNzyGM-214" target="RmwvAKCOpkevOdC7m3rw-70">
          <mxGeometry width="160" relative="1" as="geometry">
            <mxPoint x="309" y="-839" as="sourcePoint" />
            <mxPoint x="425" y="-833" as="targetPoint" />
          </mxGeometry>
        </mxCell>
        <mxCell id="RmwvAKCOpkevOdC7m3rw-112" value="nhập thông tin từ file&amp;nbsp;" style="shape=providedRequiredInterface;html=1;verticalLabelPosition=bottom;sketch=0;" vertex="1" parent="WIyWlLk6GJQsqaUBKTNV-1">
          <mxGeometry x="225" y="-1397" width="64" height="38" as="geometry" />
        </mxCell>
        <mxCell id="RmwvAKCOpkevOdC7m3rw-113" value="Xuất thông tin ở file" style="shape=providedRequiredInterface;html=1;verticalLabelPosition=bottom;sketch=0;" vertex="1" parent="WIyWlLk6GJQsqaUBKTNV-1">
          <mxGeometry x="341" y="-1400" width="64" height="38" as="geometry" />
        </mxCell>
        <mxCell id="CawzFOfw7iv2VanNzyGM-0" value="" style="endArrow=diamondThin;endFill=1;endSize=24;html=1;rounded=0;entryX=0.5;entryY=0;entryDx=0;entryDy=0;exitX=0.463;exitY=1.087;exitDx=0;exitDy=0;exitPerimeter=0;" edge="1" parent="WIyWlLk6GJQsqaUBKTNV-1" source="CawzFOfw7iv2VanNzyGM-235" target="RmwvAKCOpkevOdC7m3rw-25">
          <mxGeometry width="160" relative="1" as="geometry">
            <mxPoint x="357" y="-197" as="sourcePoint" />
            <mxPoint x="362" y="46" as="targetPoint" />
          </mxGeometry>
        </mxCell>
        <mxCell id="CawzFOfw7iv2VanNzyGM-1" value="DSNhaCungCap" style="swimlane;fontStyle=1;align=center;verticalAlign=top;childLayout=stackLayout;horizontal=1;startSize=26;horizontalStack=0;resizeParent=1;resizeParentMax=0;resizeLast=0;collapsible=1;marginBottom=0;whiteSpace=wrap;html=1;fillColor=#A9C4EB;" vertex="1" parent="WIyWlLk6GJQsqaUBKTNV-1">
          <mxGeometry x="341" y="-320" width="160" height="268" as="geometry">
            <mxRectangle x="341" y="-320" width="124" height="26" as="alternateBounds" />
          </mxGeometry>
        </mxCell>
        <mxCell id="CawzFOfw7iv2VanNzyGM-2" value="&lt;div&gt;-dsNhaCC: NhaCungCap&lt;/div&gt;" style="text;strokeColor=none;fillColor=none;align=left;verticalAlign=top;spacingLeft=4;spacingRight=4;overflow=hidden;rotatable=0;points=[[0,0.5],[1,0.5]];portConstraint=eastwest;whiteSpace=wrap;html=1;" vertex="1" parent="CawzFOfw7iv2VanNzyGM-1">
          <mxGeometry y="26" width="160" height="26" as="geometry" />
        </mxCell>
        <mxCell id="CawzFOfw7iv2VanNzyGM-6" value="" style="line;strokeWidth=1;fillColor=none;align=left;verticalAlign=middle;spacingTop=-1;spacingLeft=3;spacingRight=3;rotatable=0;labelPosition=right;points=[];portConstraint=eastwest;strokeColor=inherit;" vertex="1" parent="CawzFOfw7iv2VanNzyGM-1">
          <mxGeometry y="52" width="160" height="8" as="geometry" />
        </mxCell>
        <mxCell id="CawzFOfw7iv2VanNzyGM-7" value="+ XemDsncc()" style="text;strokeColor=none;fillColor=none;align=left;verticalAlign=top;spacingLeft=4;spacingRight=4;overflow=hidden;rotatable=0;points=[[0,0.5],[1,0.5]];portConstraint=eastwest;whiteSpace=wrap;html=1;" vertex="1" parent="CawzFOfw7iv2VanNzyGM-1">
          <mxGeometry y="60" width="160" height="26" as="geometry" />
        </mxCell>
        <mxCell id="CawzFOfw7iv2VanNzyGM-8" value="+ThemNcc();" style="text;strokeColor=none;fillColor=none;align=left;verticalAlign=top;spacingLeft=4;spacingRight=4;overflow=hidden;rotatable=0;points=[[0,0.5],[1,0.5]];portConstraint=eastwest;whiteSpace=wrap;html=1;" vertex="1" parent="CawzFOfw7iv2VanNzyGM-1">
          <mxGeometry y="86" width="160" height="26" as="geometry" />
        </mxCell>
        <mxCell id="CawzFOfw7iv2VanNzyGM-9" value="+SuaNcc()" style="text;strokeColor=none;fillColor=none;align=left;verticalAlign=top;spacingLeft=4;spacingRight=4;overflow=hidden;rotatable=0;points=[[0,0.5],[1,0.5]];portConstraint=eastwest;whiteSpace=wrap;html=1;" vertex="1" parent="CawzFOfw7iv2VanNzyGM-1">
          <mxGeometry y="112" width="160" height="26" as="geometry" />
        </mxCell>
        <mxCell id="CawzFOfw7iv2VanNzyGM-10" value="+XoaNcc()" style="text;strokeColor=none;fillColor=none;align=left;verticalAlign=top;spacingLeft=4;spacingRight=4;overflow=hidden;rotatable=0;points=[[0,0.5],[1,0.5]];portConstraint=eastwest;whiteSpace=wrap;html=1;" vertex="1" parent="CawzFOfw7iv2VanNzyGM-1">
          <mxGeometry y="138" width="160" height="26" as="geometry" />
        </mxCell>
        <mxCell id="CawzFOfw7iv2VanNzyGM-11" value="+TimKiemNcc()" style="text;strokeColor=none;fillColor=none;align=left;verticalAlign=top;spacingLeft=4;spacingRight=4;overflow=hidden;rotatable=0;points=[[0,0.5],[1,0.5]];portConstraint=eastwest;whiteSpace=wrap;html=1;" vertex="1" parent="CawzFOfw7iv2VanNzyGM-1">
          <mxGeometry y="164" width="160" height="26" as="geometry" />
        </mxCell>
        <mxCell id="CawzFOfw7iv2VanNzyGM-12" value="+ThongKeNcc()" style="text;strokeColor=none;fillColor=none;align=left;verticalAlign=top;spacingLeft=4;spacingRight=4;overflow=hidden;rotatable=0;points=[[0,0.5],[1,0.5]];portConstraint=eastwest;whiteSpace=wrap;html=1;" vertex="1" parent="CawzFOfw7iv2VanNzyGM-1">
          <mxGeometry y="190" width="160" height="26" as="geometry" />
        </mxCell>
        <mxCell id="CawzFOfw7iv2VanNzyGM-234" value="+docFile()" style="text;strokeColor=none;fillColor=none;align=left;verticalAlign=top;spacingLeft=4;spacingRight=4;overflow=hidden;rotatable=0;points=[[0,0.5],[1,0.5]];portConstraint=eastwest;whiteSpace=wrap;html=1;" vertex="1" parent="CawzFOfw7iv2VanNzyGM-1">
          <mxGeometry y="216" width="160" height="26" as="geometry" />
        </mxCell>
        <mxCell id="CawzFOfw7iv2VanNzyGM-235" value="+ghiFile()" style="text;strokeColor=none;fillColor=none;align=left;verticalAlign=top;spacingLeft=4;spacingRight=4;overflow=hidden;rotatable=0;points=[[0,0.5],[1,0.5]];portConstraint=eastwest;whiteSpace=wrap;html=1;" vertex="1" parent="CawzFOfw7iv2VanNzyGM-1">
          <mxGeometry y="242" width="160" height="26" as="geometry" />
        </mxCell>
        <mxCell id="CawzFOfw7iv2VanNzyGM-13" value="" style="endArrow=diamondThin;endFill=1;endSize=24;html=1;rounded=0;entryX=0.5;entryY=0;entryDx=0;entryDy=0;exitX=0.467;exitY=1.059;exitDx=0;exitDy=0;exitPerimeter=0;" edge="1" parent="WIyWlLk6GJQsqaUBKTNV-1" source="CawzFOfw7iv2VanNzyGM-237" target="RmwvAKCOpkevOdC7m3rw-45">
          <mxGeometry width="160" relative="1" as="geometry">
            <mxPoint x="367" y="-187" as="sourcePoint" />
            <mxPoint x="368" y="59" as="targetPoint" />
          </mxGeometry>
        </mxCell>
        <mxCell id="CawzFOfw7iv2VanNzyGM-14" value="DSHoaDon" style="swimlane;fontStyle=1;align=center;verticalAlign=top;childLayout=stackLayout;horizontal=1;startSize=26;horizontalStack=0;resizeParent=1;resizeParentMax=0;resizeLast=0;collapsible=1;marginBottom=0;whiteSpace=wrap;html=1;fillColor=#A9C4EB;" vertex="1" parent="WIyWlLk6GJQsqaUBKTNV-1">
          <mxGeometry x="519" y="-320" width="160" height="268" as="geometry" />
        </mxCell>
        <mxCell id="CawzFOfw7iv2VanNzyGM-15" value="&lt;div&gt;-dsHoaDon: HoaDon&lt;/div&gt;" style="text;strokeColor=none;fillColor=none;align=left;verticalAlign=top;spacingLeft=4;spacingRight=4;overflow=hidden;rotatable=0;points=[[0,0.5],[1,0.5]];portConstraint=eastwest;whiteSpace=wrap;html=1;" vertex="1" parent="CawzFOfw7iv2VanNzyGM-14">
          <mxGeometry y="26" width="160" height="26" as="geometry" />
        </mxCell>
        <mxCell id="CawzFOfw7iv2VanNzyGM-16" value="" style="line;strokeWidth=1;fillColor=none;align=left;verticalAlign=middle;spacingTop=-1;spacingLeft=3;spacingRight=3;rotatable=0;labelPosition=right;points=[];portConstraint=eastwest;strokeColor=inherit;" vertex="1" parent="CawzFOfw7iv2VanNzyGM-14">
          <mxGeometry y="52" width="160" height="8" as="geometry" />
        </mxCell>
        <mxCell id="CawzFOfw7iv2VanNzyGM-17" value="+ XemDshd()" style="text;strokeColor=none;fillColor=none;align=left;verticalAlign=top;spacingLeft=4;spacingRight=4;overflow=hidden;rotatable=0;points=[[0,0.5],[1,0.5]];portConstraint=eastwest;whiteSpace=wrap;html=1;" vertex="1" parent="CawzFOfw7iv2VanNzyGM-14">
          <mxGeometry y="60" width="160" height="26" as="geometry" />
        </mxCell>
        <mxCell id="CawzFOfw7iv2VanNzyGM-18" value="+ThemHd();" style="text;strokeColor=none;fillColor=none;align=left;verticalAlign=top;spacingLeft=4;spacingRight=4;overflow=hidden;rotatable=0;points=[[0,0.5],[1,0.5]];portConstraint=eastwest;whiteSpace=wrap;html=1;" vertex="1" parent="CawzFOfw7iv2VanNzyGM-14">
          <mxGeometry y="86" width="160" height="26" as="geometry" />
        </mxCell>
        <mxCell id="CawzFOfw7iv2VanNzyGM-19" value="+SuaHd()" style="text;strokeColor=none;fillColor=none;align=left;verticalAlign=top;spacingLeft=4;spacingRight=4;overflow=hidden;rotatable=0;points=[[0,0.5],[1,0.5]];portConstraint=eastwest;whiteSpace=wrap;html=1;" vertex="1" parent="CawzFOfw7iv2VanNzyGM-14">
          <mxGeometry y="112" width="160" height="26" as="geometry" />
        </mxCell>
        <mxCell id="CawzFOfw7iv2VanNzyGM-20" value="+XoaHd()" style="text;strokeColor=none;fillColor=none;align=left;verticalAlign=top;spacingLeft=4;spacingRight=4;overflow=hidden;rotatable=0;points=[[0,0.5],[1,0.5]];portConstraint=eastwest;whiteSpace=wrap;html=1;" vertex="1" parent="CawzFOfw7iv2VanNzyGM-14">
          <mxGeometry y="138" width="160" height="26" as="geometry" />
        </mxCell>
        <mxCell id="CawzFOfw7iv2VanNzyGM-21" value="+TimKiemHd()" style="text;strokeColor=none;fillColor=none;align=left;verticalAlign=top;spacingLeft=4;spacingRight=4;overflow=hidden;rotatable=0;points=[[0,0.5],[1,0.5]];portConstraint=eastwest;whiteSpace=wrap;html=1;" vertex="1" parent="CawzFOfw7iv2VanNzyGM-14">
          <mxGeometry y="164" width="160" height="26" as="geometry" />
        </mxCell>
        <mxCell id="CawzFOfw7iv2VanNzyGM-22" value="+ThongKeHd()" style="text;strokeColor=none;fillColor=none;align=left;verticalAlign=top;spacingLeft=4;spacingRight=4;overflow=hidden;rotatable=0;points=[[0,0.5],[1,0.5]];portConstraint=eastwest;whiteSpace=wrap;html=1;" vertex="1" parent="CawzFOfw7iv2VanNzyGM-14">
          <mxGeometry y="190" width="160" height="26" as="geometry" />
        </mxCell>
        <mxCell id="CawzFOfw7iv2VanNzyGM-236" value="+docFile()" style="text;strokeColor=none;fillColor=none;align=left;verticalAlign=top;spacingLeft=4;spacingRight=4;overflow=hidden;rotatable=0;points=[[0,0.5],[1,0.5]];portConstraint=eastwest;whiteSpace=wrap;html=1;" vertex="1" parent="CawzFOfw7iv2VanNzyGM-14">
          <mxGeometry y="216" width="160" height="26" as="geometry" />
        </mxCell>
        <mxCell id="CawzFOfw7iv2VanNzyGM-237" value="+ghiFile()" style="text;strokeColor=none;fillColor=none;align=left;verticalAlign=top;spacingLeft=4;spacingRight=4;overflow=hidden;rotatable=0;points=[[0,0.5],[1,0.5]];portConstraint=eastwest;whiteSpace=wrap;html=1;" vertex="1" parent="CawzFOfw7iv2VanNzyGM-14">
          <mxGeometry y="242" width="160" height="26" as="geometry" />
        </mxCell>
        <mxCell id="CawzFOfw7iv2VanNzyGM-23" value="" style="endArrow=diamondThin;endFill=1;endSize=24;html=1;rounded=0;entryX=0.5;entryY=0;entryDx=0;entryDy=0;exitX=0.444;exitY=0.936;exitDx=0;exitDy=0;exitPerimeter=0;" edge="1" parent="WIyWlLk6GJQsqaUBKTNV-1" source="CawzFOfw7iv2VanNzyGM-243" target="RmwvAKCOpkevOdC7m3rw-50">
          <mxGeometry width="160" relative="1" as="geometry">
            <mxPoint x="539" y="-190" as="sourcePoint" />
            <mxPoint x="750" y="46" as="targetPoint" />
          </mxGeometry>
        </mxCell>
        <mxCell id="CawzFOfw7iv2VanNzyGM-24" value="DSPhieuNhapHang&lt;div&gt;&lt;br&gt;&lt;/div&gt;" style="swimlane;fontStyle=1;align=center;verticalAlign=top;childLayout=stackLayout;horizontal=1;startSize=26;horizontalStack=0;resizeParent=1;resizeParentMax=0;resizeLast=0;collapsible=1;marginBottom=0;whiteSpace=wrap;html=1;fillColor=#A9C4EB;" vertex="1" parent="WIyWlLk6GJQsqaUBKTNV-1">
          <mxGeometry x="695" y="-320" width="182" height="293" as="geometry" />
        </mxCell>
        <mxCell id="CawzFOfw7iv2VanNzyGM-25" value="&lt;div&gt;-dsPhieuNhapHang: Phieu NhapHang&lt;/div&gt;" style="text;strokeColor=none;fillColor=none;align=left;verticalAlign=top;spacingLeft=4;spacingRight=4;overflow=hidden;rotatable=0;points=[[0,0.5],[1,0.5]];portConstraint=eastwest;whiteSpace=wrap;html=1;" vertex="1" parent="CawzFOfw7iv2VanNzyGM-24">
          <mxGeometry y="26" width="182" height="37" as="geometry" />
        </mxCell>
        <mxCell id="CawzFOfw7iv2VanNzyGM-26" value="" style="line;strokeWidth=1;fillColor=none;align=left;verticalAlign=middle;spacingTop=-1;spacingLeft=3;spacingRight=3;rotatable=0;labelPosition=right;points=[];portConstraint=eastwest;strokeColor=inherit;" vertex="1" parent="CawzFOfw7iv2VanNzyGM-24">
          <mxGeometry y="63" width="182" height="20" as="geometry" />
        </mxCell>
        <mxCell id="CawzFOfw7iv2VanNzyGM-27" value="+ XemDspnh()" style="text;strokeColor=none;fillColor=none;align=left;verticalAlign=top;spacingLeft=4;spacingRight=4;overflow=hidden;rotatable=0;points=[[0,0.5],[1,0.5]];portConstraint=eastwest;whiteSpace=wrap;html=1;" vertex="1" parent="CawzFOfw7iv2VanNzyGM-24">
          <mxGeometry y="83" width="182" height="28" as="geometry" />
        </mxCell>
        <mxCell id="CawzFOfw7iv2VanNzyGM-28" value="+ThemPnh();" style="text;strokeColor=none;fillColor=none;align=left;verticalAlign=top;spacingLeft=4;spacingRight=4;overflow=hidden;rotatable=0;points=[[0,0.5],[1,0.5]];portConstraint=eastwest;whiteSpace=wrap;html=1;" vertex="1" parent="CawzFOfw7iv2VanNzyGM-24">
          <mxGeometry y="111" width="182" height="26" as="geometry" />
        </mxCell>
        <mxCell id="CawzFOfw7iv2VanNzyGM-29" value="+SuaPnh()" style="text;strokeColor=none;fillColor=none;align=left;verticalAlign=top;spacingLeft=4;spacingRight=4;overflow=hidden;rotatable=0;points=[[0,0.5],[1,0.5]];portConstraint=eastwest;whiteSpace=wrap;html=1;" vertex="1" parent="CawzFOfw7iv2VanNzyGM-24">
          <mxGeometry y="137" width="182" height="26" as="geometry" />
        </mxCell>
        <mxCell id="CawzFOfw7iv2VanNzyGM-30" value="+XoaPnh()" style="text;strokeColor=none;fillColor=none;align=left;verticalAlign=top;spacingLeft=4;spacingRight=4;overflow=hidden;rotatable=0;points=[[0,0.5],[1,0.5]];portConstraint=eastwest;whiteSpace=wrap;html=1;" vertex="1" parent="CawzFOfw7iv2VanNzyGM-24">
          <mxGeometry y="163" width="182" height="26" as="geometry" />
        </mxCell>
        <mxCell id="CawzFOfw7iv2VanNzyGM-31" value="+TimKiemPnh()" style="text;strokeColor=none;fillColor=none;align=left;verticalAlign=top;spacingLeft=4;spacingRight=4;overflow=hidden;rotatable=0;points=[[0,0.5],[1,0.5]];portConstraint=eastwest;whiteSpace=wrap;html=1;" vertex="1" parent="CawzFOfw7iv2VanNzyGM-24">
          <mxGeometry y="189" width="182" height="26" as="geometry" />
        </mxCell>
        <mxCell id="CawzFOfw7iv2VanNzyGM-32" value="+ThongKePnh()" style="text;strokeColor=none;fillColor=none;align=left;verticalAlign=top;spacingLeft=4;spacingRight=4;overflow=hidden;rotatable=0;points=[[0,0.5],[1,0.5]];portConstraint=eastwest;whiteSpace=wrap;html=1;" vertex="1" parent="CawzFOfw7iv2VanNzyGM-24">
          <mxGeometry y="215" width="182" height="26" as="geometry" />
        </mxCell>
        <mxCell id="CawzFOfw7iv2VanNzyGM-242" value="+docFile()" style="text;strokeColor=none;fillColor=none;align=left;verticalAlign=top;spacingLeft=4;spacingRight=4;overflow=hidden;rotatable=0;points=[[0,0.5],[1,0.5]];portConstraint=eastwest;whiteSpace=wrap;html=1;" vertex="1" parent="CawzFOfw7iv2VanNzyGM-24">
          <mxGeometry y="241" width="182" height="26" as="geometry" />
        </mxCell>
        <mxCell id="CawzFOfw7iv2VanNzyGM-243" value="+ghiFile()" style="text;strokeColor=none;fillColor=none;align=left;verticalAlign=top;spacingLeft=4;spacingRight=4;overflow=hidden;rotatable=0;points=[[0,0.5],[1,0.5]];portConstraint=eastwest;whiteSpace=wrap;html=1;" vertex="1" parent="CawzFOfw7iv2VanNzyGM-24">
          <mxGeometry y="267" width="182" height="26" as="geometry" />
        </mxCell>
        <mxCell id="CawzFOfw7iv2VanNzyGM-33" value="" style="endArrow=diamondThin;endFill=1;endSize=24;html=1;rounded=0;entryX=0.444;entryY=0;entryDx=0;entryDy=0;entryPerimeter=0;exitX=0.423;exitY=1.235;exitDx=0;exitDy=0;exitPerimeter=0;" edge="1" parent="WIyWlLk6GJQsqaUBKTNV-1" source="CawzFOfw7iv2VanNzyGM-245" target="RmwvAKCOpkevOdC7m3rw-30">
          <mxGeometry width="160" relative="1" as="geometry">
            <mxPoint x="754" y="-191" as="sourcePoint" />
            <mxPoint x="967" y="45" as="targetPoint" />
          </mxGeometry>
        </mxCell>
        <mxCell id="CawzFOfw7iv2VanNzyGM-34" value="&lt;div&gt;DSNhanVien&lt;/div&gt;&lt;div&gt;&lt;br&gt;&lt;/div&gt;" style="swimlane;fontStyle=1;align=center;verticalAlign=top;childLayout=stackLayout;horizontal=1;startSize=26;horizontalStack=0;resizeParent=1;resizeParentMax=0;resizeLast=0;collapsible=1;marginBottom=0;whiteSpace=wrap;html=1;fillColor=#A9C4EB;" vertex="1" parent="WIyWlLk6GJQsqaUBKTNV-1">
          <mxGeometry x="896" y="-320" width="182" height="294" as="geometry" />
        </mxCell>
        <mxCell id="CawzFOfw7iv2VanNzyGM-35" value="&lt;div&gt;-dsDanhVien: NhanVien&lt;/div&gt;" style="text;strokeColor=none;fillColor=none;align=left;verticalAlign=top;spacingLeft=4;spacingRight=4;overflow=hidden;rotatable=0;points=[[0,0.5],[1,0.5]];portConstraint=eastwest;whiteSpace=wrap;html=1;" vertex="1" parent="CawzFOfw7iv2VanNzyGM-34">
          <mxGeometry y="26" width="182" height="26" as="geometry" />
        </mxCell>
        <mxCell id="CawzFOfw7iv2VanNzyGM-36" value="" style="line;strokeWidth=1;fillColor=none;align=left;verticalAlign=middle;spacingTop=-1;spacingLeft=3;spacingRight=3;rotatable=0;labelPosition=right;points=[];portConstraint=eastwest;strokeColor=inherit;" vertex="1" parent="CawzFOfw7iv2VanNzyGM-34">
          <mxGeometry y="52" width="182" height="8" as="geometry" />
        </mxCell>
        <mxCell id="CawzFOfw7iv2VanNzyGM-38" value="+ThemNv();" style="text;strokeColor=none;fillColor=none;align=left;verticalAlign=top;spacingLeft=4;spacingRight=4;overflow=hidden;rotatable=0;points=[[0,0.5],[1,0.5]];portConstraint=eastwest;whiteSpace=wrap;html=1;" vertex="1" parent="CawzFOfw7iv2VanNzyGM-34">
          <mxGeometry y="60" width="182" height="26" as="geometry" />
        </mxCell>
        <mxCell id="CawzFOfw7iv2VanNzyGM-39" value="+SuaNv()" style="text;strokeColor=none;fillColor=none;align=left;verticalAlign=top;spacingLeft=4;spacingRight=4;overflow=hidden;rotatable=0;points=[[0,0.5],[1,0.5]];portConstraint=eastwest;whiteSpace=wrap;html=1;" vertex="1" parent="CawzFOfw7iv2VanNzyGM-34">
          <mxGeometry y="86" width="182" height="26" as="geometry" />
        </mxCell>
        <mxCell id="CawzFOfw7iv2VanNzyGM-37" value="+ XemDsnv()" style="text;strokeColor=none;fillColor=none;align=left;verticalAlign=top;spacingLeft=4;spacingRight=4;overflow=hidden;rotatable=0;points=[[0,0.5],[1,0.5]];portConstraint=eastwest;whiteSpace=wrap;html=1;" vertex="1" parent="CawzFOfw7iv2VanNzyGM-34">
          <mxGeometry y="112" width="182" height="26" as="geometry" />
        </mxCell>
        <mxCell id="CawzFOfw7iv2VanNzyGM-40" value="+XoaNv()" style="text;strokeColor=none;fillColor=none;align=left;verticalAlign=top;spacingLeft=4;spacingRight=4;overflow=hidden;rotatable=0;points=[[0,0.5],[1,0.5]];portConstraint=eastwest;whiteSpace=wrap;html=1;" vertex="1" parent="CawzFOfw7iv2VanNzyGM-34">
          <mxGeometry y="138" width="182" height="26" as="geometry" />
        </mxCell>
        <mxCell id="CawzFOfw7iv2VanNzyGM-41" value="+TimKiemNv()" style="text;strokeColor=none;fillColor=none;align=left;verticalAlign=top;spacingLeft=4;spacingRight=4;overflow=hidden;rotatable=0;points=[[0,0.5],[1,0.5]];portConstraint=eastwest;whiteSpace=wrap;html=1;" vertex="1" parent="CawzFOfw7iv2VanNzyGM-34">
          <mxGeometry y="164" width="182" height="26" as="geometry" />
        </mxCell>
        <mxCell id="CawzFOfw7iv2VanNzyGM-42" value="+ThongKeNv()" style="text;strokeColor=none;fillColor=none;align=left;verticalAlign=top;spacingLeft=4;spacingRight=4;overflow=hidden;rotatable=0;points=[[0,0.5],[1,0.5]];portConstraint=eastwest;whiteSpace=wrap;html=1;" vertex="1" parent="CawzFOfw7iv2VanNzyGM-34">
          <mxGeometry y="190" width="182" height="26" as="geometry" />
        </mxCell>
        <mxCell id="CawzFOfw7iv2VanNzyGM-244" value="+docFile()" style="text;strokeColor=none;fillColor=none;align=left;verticalAlign=top;spacingLeft=4;spacingRight=4;overflow=hidden;rotatable=0;points=[[0,0.5],[1,0.5]];portConstraint=eastwest;whiteSpace=wrap;html=1;" vertex="1" parent="CawzFOfw7iv2VanNzyGM-34">
          <mxGeometry y="216" width="182" height="26" as="geometry" />
        </mxCell>
        <mxCell id="CawzFOfw7iv2VanNzyGM-247" value="+ghiFile()" style="text;strokeColor=none;fillColor=none;align=left;verticalAlign=top;spacingLeft=4;spacingRight=4;overflow=hidden;rotatable=0;points=[[0,0.5],[1,0.5]];portConstraint=eastwest;whiteSpace=wrap;html=1;" vertex="1" parent="CawzFOfw7iv2VanNzyGM-34">
          <mxGeometry y="242" width="182" height="26" as="geometry" />
        </mxCell>
        <mxCell id="CawzFOfw7iv2VanNzyGM-245" value="+ghiFile()" style="text;strokeColor=none;fillColor=none;align=left;verticalAlign=top;spacingLeft=4;spacingRight=4;overflow=hidden;rotatable=0;points=[[0,0.5],[1,0.5]];portConstraint=eastwest;whiteSpace=wrap;html=1;" vertex="1" parent="CawzFOfw7iv2VanNzyGM-34">
          <mxGeometry y="268" width="182" height="26" as="geometry" />
        </mxCell>
        <mxCell id="CawzFOfw7iv2VanNzyGM-43" value="" style="endArrow=diamondThin;endFill=1;endSize=24;html=1;rounded=0;entryX=0.5;entryY=0;entryDx=0;entryDy=0;exitX=0.514;exitY=1.084;exitDx=0;exitDy=0;exitPerimeter=0;" edge="1" parent="WIyWlLk6GJQsqaUBKTNV-1" source="CawzFOfw7iv2VanNzyGM-251" target="RmwvAKCOpkevOdC7m3rw-35">
          <mxGeometry width="160" relative="1" as="geometry">
            <mxPoint x="958" y="-194" as="sourcePoint" />
            <mxPoint x="1131" y="63" as="targetPoint" />
          </mxGeometry>
        </mxCell>
        <mxCell id="CawzFOfw7iv2VanNzyGM-44" value="&lt;div&gt;DSKhachHang&lt;/div&gt;&lt;div&gt;&lt;br&gt;&lt;/div&gt;" style="swimlane;fontStyle=1;align=center;verticalAlign=top;childLayout=stackLayout;horizontal=1;startSize=26;horizontalStack=0;resizeParent=1;resizeParentMax=0;resizeLast=0;collapsible=1;marginBottom=0;whiteSpace=wrap;html=1;fillColor=#A9C4EB;" vertex="1" parent="WIyWlLk6GJQsqaUBKTNV-1">
          <mxGeometry x="1097" y="-320" width="182" height="268" as="geometry" />
        </mxCell>
        <mxCell id="CawzFOfw7iv2VanNzyGM-45" value="&lt;div&gt;-dsKhachHang: KhachHang&lt;/div&gt;" style="text;strokeColor=none;fillColor=#FFFFFF;align=left;verticalAlign=top;spacingLeft=4;spacingRight=4;overflow=hidden;rotatable=0;points=[[0,0.5],[1,0.5]];portConstraint=eastwest;whiteSpace=wrap;html=1;" vertex="1" parent="CawzFOfw7iv2VanNzyGM-44">
          <mxGeometry y="26" width="182" height="26" as="geometry" />
        </mxCell>
        <mxCell id="CawzFOfw7iv2VanNzyGM-46" value="" style="line;strokeWidth=1;fillColor=none;align=left;verticalAlign=middle;spacingTop=-1;spacingLeft=3;spacingRight=3;rotatable=0;labelPosition=right;points=[];portConstraint=eastwest;strokeColor=inherit;" vertex="1" parent="CawzFOfw7iv2VanNzyGM-44">
          <mxGeometry y="52" width="182" height="8" as="geometry" />
        </mxCell>
        <mxCell id="CawzFOfw7iv2VanNzyGM-47" value="+ XemDskh()" style="text;strokeColor=none;fillColor=none;align=left;verticalAlign=top;spacingLeft=4;spacingRight=4;overflow=hidden;rotatable=0;points=[[0,0.5],[1,0.5]];portConstraint=eastwest;whiteSpace=wrap;html=1;" vertex="1" parent="CawzFOfw7iv2VanNzyGM-44">
          <mxGeometry y="60" width="182" height="26" as="geometry" />
        </mxCell>
        <mxCell id="CawzFOfw7iv2VanNzyGM-48" value="+ThemKh();" style="text;strokeColor=none;fillColor=none;align=left;verticalAlign=top;spacingLeft=4;spacingRight=4;overflow=hidden;rotatable=0;points=[[0,0.5],[1,0.5]];portConstraint=eastwest;whiteSpace=wrap;html=1;" vertex="1" parent="CawzFOfw7iv2VanNzyGM-44">
          <mxGeometry y="86" width="182" height="26" as="geometry" />
        </mxCell>
        <mxCell id="CawzFOfw7iv2VanNzyGM-49" value="+SuaKh()" style="text;strokeColor=none;fillColor=none;align=left;verticalAlign=top;spacingLeft=4;spacingRight=4;overflow=hidden;rotatable=0;points=[[0,0.5],[1,0.5]];portConstraint=eastwest;whiteSpace=wrap;html=1;" vertex="1" parent="CawzFOfw7iv2VanNzyGM-44">
          <mxGeometry y="112" width="182" height="26" as="geometry" />
        </mxCell>
        <mxCell id="CawzFOfw7iv2VanNzyGM-50" value="+XoaKh()" style="text;strokeColor=none;fillColor=none;align=left;verticalAlign=top;spacingLeft=4;spacingRight=4;overflow=hidden;rotatable=0;points=[[0,0.5],[1,0.5]];portConstraint=eastwest;whiteSpace=wrap;html=1;" vertex="1" parent="CawzFOfw7iv2VanNzyGM-44">
          <mxGeometry y="138" width="182" height="26" as="geometry" />
        </mxCell>
        <mxCell id="CawzFOfw7iv2VanNzyGM-51" value="+TimKiemKh()" style="text;strokeColor=none;fillColor=none;align=left;verticalAlign=top;spacingLeft=4;spacingRight=4;overflow=hidden;rotatable=0;points=[[0,0.5],[1,0.5]];portConstraint=eastwest;whiteSpace=wrap;html=1;" vertex="1" parent="CawzFOfw7iv2VanNzyGM-44">
          <mxGeometry y="164" width="182" height="26" as="geometry" />
        </mxCell>
        <mxCell id="CawzFOfw7iv2VanNzyGM-52" value="+ThongKeKh()" style="text;strokeColor=none;fillColor=none;align=left;verticalAlign=top;spacingLeft=4;spacingRight=4;overflow=hidden;rotatable=0;points=[[0,0.5],[1,0.5]];portConstraint=eastwest;whiteSpace=wrap;html=1;" vertex="1" parent="CawzFOfw7iv2VanNzyGM-44">
          <mxGeometry y="190" width="182" height="26" as="geometry" />
        </mxCell>
        <mxCell id="CawzFOfw7iv2VanNzyGM-250" value="+docFile()" style="text;strokeColor=none;fillColor=none;align=left;verticalAlign=top;spacingLeft=4;spacingRight=4;overflow=hidden;rotatable=0;points=[[0,0.5],[1,0.5]];portConstraint=eastwest;whiteSpace=wrap;html=1;" vertex="1" parent="CawzFOfw7iv2VanNzyGM-44">
          <mxGeometry y="216" width="182" height="26" as="geometry" />
        </mxCell>
        <mxCell id="CawzFOfw7iv2VanNzyGM-251" value="+ghiFile()" style="text;strokeColor=none;fillColor=none;align=left;verticalAlign=top;spacingLeft=4;spacingRight=4;overflow=hidden;rotatable=0;points=[[0,0.5],[1,0.5]];portConstraint=eastwest;whiteSpace=wrap;html=1;" vertex="1" parent="CawzFOfw7iv2VanNzyGM-44">
          <mxGeometry y="242" width="182" height="26" as="geometry" />
        </mxCell>
        <mxCell id="CawzFOfw7iv2VanNzyGM-53" value="" style="endArrow=diamondThin;endFill=1;endSize=24;html=1;rounded=0;entryX=0.5;entryY=0;entryDx=0;entryDy=0;exitX=0.573;exitY=1.073;exitDx=0;exitDy=0;exitPerimeter=0;" edge="1" parent="WIyWlLk6GJQsqaUBKTNV-1" source="CawzFOfw7iv2VanNzyGM-66" target="CawzFOfw7iv2VanNzyGM-1">
          <mxGeometry width="160" relative="1" as="geometry">
            <mxPoint x="365.66321243523316" y="-567" as="sourcePoint" />
            <mxPoint x="361" y="-387" as="targetPoint" />
          </mxGeometry>
        </mxCell>
        <mxCell id="CawzFOfw7iv2VanNzyGM-54" value="NhaCungCap" style="swimlane;fontStyle=1;align=center;verticalAlign=top;childLayout=stackLayout;horizontal=1;startSize=26;horizontalStack=0;resizeParent=1;resizeParentMax=0;resizeLast=0;collapsible=1;marginBottom=0;whiteSpace=wrap;html=1;fillColor=#FFFFCC;" vertex="1" parent="WIyWlLk6GJQsqaUBKTNV-1">
          <mxGeometry x="127" y="-817" width="160" height="268" as="geometry" />
        </mxCell>
        <mxCell id="CawzFOfw7iv2VanNzyGM-55" value="-MaNCC: int" style="text;strokeColor=none;fillColor=none;align=left;verticalAlign=top;spacingLeft=4;spacingRight=4;overflow=hidden;rotatable=0;points=[[0,0.5],[1,0.5]];portConstraint=eastwest;whiteSpace=wrap;html=1;fontStyle=1" vertex="1" parent="CawzFOfw7iv2VanNzyGM-54">
          <mxGeometry y="26" width="160" height="26" as="geometry" />
        </mxCell>
        <mxCell id="CawzFOfw7iv2VanNzyGM-61" value="-TenNCC: String&amp;nbsp;" style="text;strokeColor=none;fillColor=none;align=left;verticalAlign=top;spacingLeft=4;spacingRight=4;overflow=hidden;rotatable=0;points=[[0,0.5],[1,0.5]];portConstraint=eastwest;whiteSpace=wrap;html=1;" vertex="1" parent="CawzFOfw7iv2VanNzyGM-54">
          <mxGeometry y="52" width="160" height="26" as="geometry" />
        </mxCell>
        <mxCell id="CawzFOfw7iv2VanNzyGM-56" value="-SoDienThoaiNCC:String" style="text;strokeColor=none;fillColor=none;align=left;verticalAlign=top;spacingLeft=4;spacingRight=4;overflow=hidden;rotatable=0;points=[[0,0.5],[1,0.5]];portConstraint=eastwest;whiteSpace=wrap;html=1;" vertex="1" parent="CawzFOfw7iv2VanNzyGM-54">
          <mxGeometry y="78" width="160" height="26" as="geometry" />
        </mxCell>
        <mxCell id="CawzFOfw7iv2VanNzyGM-57" value="-Email:String" style="text;strokeColor=none;fillColor=none;align=left;verticalAlign=top;spacingLeft=4;spacingRight=4;overflow=hidden;rotatable=0;points=[[0,0.5],[1,0.5]];portConstraint=eastwest;whiteSpace=wrap;html=1;" vertex="1" parent="CawzFOfw7iv2VanNzyGM-54">
          <mxGeometry y="104" width="160" height="26" as="geometry" />
        </mxCell>
        <mxCell id="CawzFOfw7iv2VanNzyGM-58" value="-DiaChi: String" style="text;strokeColor=none;fillColor=none;align=left;verticalAlign=top;spacingLeft=4;spacingRight=4;overflow=hidden;rotatable=0;points=[[0,0.5],[1,0.5]];portConstraint=eastwest;whiteSpace=wrap;html=1;" vertex="1" parent="CawzFOfw7iv2VanNzyGM-54">
          <mxGeometry y="130" width="160" height="26" as="geometry" />
        </mxCell>
        <mxCell id="CawzFOfw7iv2VanNzyGM-62" value="" style="line;strokeWidth=1;fillColor=none;align=left;verticalAlign=middle;spacingTop=-1;spacingLeft=3;spacingRight=3;rotatable=0;labelPosition=right;points=[];portConstraint=eastwest;strokeColor=inherit;" vertex="1" parent="CawzFOfw7iv2VanNzyGM-54">
          <mxGeometry y="156" width="160" height="8" as="geometry" />
        </mxCell>
        <mxCell id="CawzFOfw7iv2VanNzyGM-63" value="&lt;div&gt;+Getter/Setter&amp;nbsp;&lt;/div&gt;" style="text;strokeColor=none;fillColor=none;align=left;verticalAlign=top;spacingLeft=4;spacingRight=4;overflow=hidden;rotatable=0;points=[[0,0.5],[1,0.5]];portConstraint=eastwest;whiteSpace=wrap;html=1;" vertex="1" parent="CawzFOfw7iv2VanNzyGM-54">
          <mxGeometry y="164" width="160" height="26" as="geometry" />
        </mxCell>
        <mxCell id="CawzFOfw7iv2VanNzyGM-64" value="&lt;div&gt;+Constructor&lt;/div&gt;" style="text;strokeColor=none;fillColor=none;align=left;verticalAlign=top;spacingLeft=4;spacingRight=4;overflow=hidden;rotatable=0;points=[[0,0.5],[1,0.5]];portConstraint=eastwest;whiteSpace=wrap;html=1;" vertex="1" parent="CawzFOfw7iv2VanNzyGM-54">
          <mxGeometry y="190" width="160" height="26" as="geometry" />
        </mxCell>
        <mxCell id="CawzFOfw7iv2VanNzyGM-65" value="+Nhap()" style="text;strokeColor=none;fillColor=none;align=left;verticalAlign=top;spacingLeft=4;spacingRight=4;overflow=hidden;rotatable=0;points=[[0,0.5],[1,0.5]];portConstraint=eastwest;whiteSpace=wrap;html=1;" vertex="1" parent="CawzFOfw7iv2VanNzyGM-54">
          <mxGeometry y="216" width="160" height="26" as="geometry" />
        </mxCell>
        <mxCell id="CawzFOfw7iv2VanNzyGM-66" value="+Xuat" style="text;strokeColor=none;fillColor=none;align=left;verticalAlign=top;spacingLeft=4;spacingRight=4;overflow=hidden;rotatable=0;points=[[0,0.5],[1,0.5]];portConstraint=eastwest;whiteSpace=wrap;html=1;" vertex="1" parent="CawzFOfw7iv2VanNzyGM-54">
          <mxGeometry y="242" width="160" height="26" as="geometry" />
        </mxCell>
        <mxCell id="CawzFOfw7iv2VanNzyGM-67" value="" style="endArrow=diamondThin;endFill=1;endSize=24;html=1;rounded=0;exitX=0.369;exitY=1.038;exitDx=0;exitDy=0;exitPerimeter=0;entryX=0.408;entryY=-0.001;entryDx=0;entryDy=0;entryPerimeter=0;" edge="1" parent="WIyWlLk6GJQsqaUBKTNV-1" source="CawzFOfw7iv2VanNzyGM-217" target="CawzFOfw7iv2VanNzyGM-14">
          <mxGeometry width="160" relative="1" as="geometry">
            <mxPoint x="591.6632124352332" y="-572" as="sourcePoint" />
            <mxPoint x="584" y="-333" as="targetPoint" />
          </mxGeometry>
        </mxCell>
        <mxCell id="CawzFOfw7iv2VanNzyGM-68" value="HoaDon" style="swimlane;fontStyle=1;align=center;verticalAlign=top;childLayout=stackLayout;horizontal=1;startSize=26;horizontalStack=0;resizeParent=1;resizeParentMax=0;resizeLast=0;collapsible=1;marginBottom=0;whiteSpace=wrap;html=1;fillColor=#FFFFCC;" vertex="1" parent="WIyWlLk6GJQsqaUBKTNV-1">
          <mxGeometry x="331" y="-837" width="160" height="372" as="geometry" />
        </mxCell>
        <mxCell id="CawzFOfw7iv2VanNzyGM-69" value="-MaHD: int" style="text;strokeColor=none;fillColor=none;align=left;verticalAlign=top;spacingLeft=4;spacingRight=4;overflow=hidden;rotatable=0;points=[[0,0.5],[1,0.5]];portConstraint=eastwest;whiteSpace=wrap;html=1;fontStyle=1" vertex="1" parent="CawzFOfw7iv2VanNzyGM-68">
          <mxGeometry y="26" width="160" height="26" as="geometry" />
        </mxCell>
        <mxCell id="CawzFOfw7iv2VanNzyGM-70" value="&lt;i&gt;-MaKH: int&lt;/i&gt;" style="text;strokeColor=none;fillColor=none;align=left;verticalAlign=top;spacingLeft=4;spacingRight=4;overflow=hidden;rotatable=0;points=[[0,0.5],[1,0.5]];portConstraint=eastwest;whiteSpace=wrap;html=1;" vertex="1" parent="CawzFOfw7iv2VanNzyGM-68">
          <mxGeometry y="52" width="160" height="26" as="geometry" />
        </mxCell>
        <mxCell id="CawzFOfw7iv2VanNzyGM-71" value="&lt;i&gt;-MaNV: int&lt;/i&gt;" style="text;strokeColor=none;fillColor=none;align=left;verticalAlign=top;spacingLeft=4;spacingRight=4;overflow=hidden;rotatable=0;points=[[0,0.5],[1,0.5]];portConstraint=eastwest;whiteSpace=wrap;html=1;" vertex="1" parent="CawzFOfw7iv2VanNzyGM-68">
          <mxGeometry y="78" width="160" height="26" as="geometry" />
        </mxCell>
        <mxCell id="CawzFOfw7iv2VanNzyGM-72" value="-NgayTao: LocalDate" style="text;strokeColor=none;fillColor=none;align=left;verticalAlign=top;spacingLeft=4;spacingRight=4;overflow=hidden;rotatable=0;points=[[0,0.5],[1,0.5]];portConstraint=eastwest;whiteSpace=wrap;html=1;" vertex="1" parent="CawzFOfw7iv2VanNzyGM-68">
          <mxGeometry y="104" width="160" height="26" as="geometry" />
        </mxCell>
        <mxCell id="CawzFOfw7iv2VanNzyGM-73" value="-TongTien: Float" style="text;strokeColor=none;fillColor=none;align=left;verticalAlign=top;spacingLeft=4;spacingRight=4;overflow=hidden;rotatable=0;points=[[0,0.5],[1,0.5]];portConstraint=eastwest;whiteSpace=wrap;html=1;" vertex="1" parent="CawzFOfw7iv2VanNzyGM-68">
          <mxGeometry y="130" width="160" height="26" as="geometry" />
        </mxCell>
        <mxCell id="CawzFOfw7iv2VanNzyGM-74" value="-PhuongthucTT: String&amp;nbsp;" style="text;strokeColor=none;fillColor=none;align=left;verticalAlign=top;spacingLeft=4;spacingRight=4;overflow=hidden;rotatable=0;points=[[0,0.5],[1,0.5]];portConstraint=eastwest;whiteSpace=wrap;html=1;" vertex="1" parent="CawzFOfw7iv2VanNzyGM-68">
          <mxGeometry y="156" width="160" height="26" as="geometry" />
        </mxCell>
        <mxCell id="CawzFOfw7iv2VanNzyGM-75" value="-TienTra: Float" style="text;strokeColor=none;fillColor=none;align=left;verticalAlign=top;spacingLeft=4;spacingRight=4;overflow=hidden;rotatable=0;points=[[0,0.5],[1,0.5]];portConstraint=eastwest;whiteSpace=wrap;html=1;" vertex="1" parent="CawzFOfw7iv2VanNzyGM-68">
          <mxGeometry y="182" width="160" height="26" as="geometry" />
        </mxCell>
        <mxCell id="CawzFOfw7iv2VanNzyGM-197" value="-TienThua: Float" style="text;strokeColor=none;fillColor=none;align=left;verticalAlign=top;spacingLeft=4;spacingRight=4;overflow=hidden;rotatable=0;points=[[0,0.5],[1,0.5]];portConstraint=eastwest;whiteSpace=wrap;html=1;" vertex="1" parent="CawzFOfw7iv2VanNzyGM-68">
          <mxGeometry y="208" width="160" height="26" as="geometry" />
        </mxCell>
        <mxCell id="CawzFOfw7iv2VanNzyGM-76" value="" style="line;strokeWidth=1;fillColor=none;align=left;verticalAlign=middle;spacingTop=-1;spacingLeft=3;spacingRight=3;rotatable=0;labelPosition=right;points=[];portConstraint=eastwest;strokeColor=inherit;" vertex="1" parent="CawzFOfw7iv2VanNzyGM-68">
          <mxGeometry y="234" width="160" height="8" as="geometry" />
        </mxCell>
        <mxCell id="CawzFOfw7iv2VanNzyGM-77" value="&lt;div&gt;+Getter/Setter&amp;nbsp;&lt;/div&gt;" style="text;strokeColor=none;fillColor=none;align=left;verticalAlign=top;spacingLeft=4;spacingRight=4;overflow=hidden;rotatable=0;points=[[0,0.5],[1,0.5]];portConstraint=eastwest;whiteSpace=wrap;html=1;" vertex="1" parent="CawzFOfw7iv2VanNzyGM-68">
          <mxGeometry y="242" width="160" height="26" as="geometry" />
        </mxCell>
        <mxCell id="CawzFOfw7iv2VanNzyGM-78" value="&lt;div&gt;+Constructor&lt;/div&gt;" style="text;strokeColor=none;fillColor=none;align=left;verticalAlign=top;spacingLeft=4;spacingRight=4;overflow=hidden;rotatable=0;points=[[0,0.5],[1,0.5]];portConstraint=eastwest;whiteSpace=wrap;html=1;" vertex="1" parent="CawzFOfw7iv2VanNzyGM-68">
          <mxGeometry y="268" width="160" height="26" as="geometry" />
        </mxCell>
        <mxCell id="CawzFOfw7iv2VanNzyGM-79" value="+Nhap()" style="text;strokeColor=none;fillColor=none;align=left;verticalAlign=top;spacingLeft=4;spacingRight=4;overflow=hidden;rotatable=0;points=[[0,0.5],[1,0.5]];portConstraint=eastwest;whiteSpace=wrap;html=1;" vertex="1" parent="CawzFOfw7iv2VanNzyGM-68">
          <mxGeometry y="294" width="160" height="26" as="geometry" />
        </mxCell>
        <mxCell id="CawzFOfw7iv2VanNzyGM-80" value="+Xuat()" style="text;strokeColor=none;fillColor=none;align=left;verticalAlign=top;spacingLeft=4;spacingRight=4;overflow=hidden;rotatable=0;points=[[0,0.5],[1,0.5]];portConstraint=eastwest;whiteSpace=wrap;html=1;" vertex="1" parent="CawzFOfw7iv2VanNzyGM-68">
          <mxGeometry y="320" width="160" height="26" as="geometry" />
        </mxCell>
        <mxCell id="CawzFOfw7iv2VanNzyGM-217" value="+tinhThanhTien()" style="text;strokeColor=none;fillColor=none;align=left;verticalAlign=top;spacingLeft=4;spacingRight=4;overflow=hidden;rotatable=0;points=[[0,0.5],[1,0.5]];portConstraint=eastwest;whiteSpace=wrap;html=1;" vertex="1" parent="CawzFOfw7iv2VanNzyGM-68">
          <mxGeometry y="346" width="160" height="26" as="geometry" />
        </mxCell>
        <mxCell id="CawzFOfw7iv2VanNzyGM-108" value="" style="endArrow=diamondThin;endFill=1;endSize=24;html=1;rounded=0;entryX=0.5;entryY=0;entryDx=0;entryDy=0;exitX=0.573;exitY=1.073;exitDx=0;exitDy=0;exitPerimeter=0;" edge="1" parent="WIyWlLk6GJQsqaUBKTNV-1" source="CawzFOfw7iv2VanNzyGM-121" target="CawzFOfw7iv2VanNzyGM-24">
          <mxGeometry width="160" relative="1" as="geometry">
            <mxPoint x="780.6632124352332" y="-579" as="sourcePoint" />
            <mxPoint x="776" y="-387" as="targetPoint" />
          </mxGeometry>
        </mxCell>
        <mxCell id="CawzFOfw7iv2VanNzyGM-109" value="PhieuNhapHang" style="swimlane;fontStyle=1;align=center;verticalAlign=top;childLayout=stackLayout;horizontal=1;startSize=26;horizontalStack=0;resizeParent=1;resizeParentMax=0;resizeLast=0;collapsible=1;marginBottom=0;whiteSpace=wrap;html=1;fillColor=#FFFFCC;" vertex="1" parent="WIyWlLk6GJQsqaUBKTNV-1">
          <mxGeometry x="905" y="-827" width="160" height="242" as="geometry" />
        </mxCell>
        <mxCell id="CawzFOfw7iv2VanNzyGM-110" value="-MaPhieu: int&amp;nbsp;" style="text;strokeColor=none;fillColor=none;align=left;verticalAlign=top;spacingLeft=4;spacingRight=4;overflow=hidden;rotatable=0;points=[[0,0.5],[1,0.5]];portConstraint=eastwest;whiteSpace=wrap;html=1;fontStyle=1" vertex="1" parent="CawzFOfw7iv2VanNzyGM-109">
          <mxGeometry y="26" width="160" height="26" as="geometry" />
        </mxCell>
        <mxCell id="CawzFOfw7iv2VanNzyGM-111" value="&lt;i&gt;-MaNhaCC: int&lt;/i&gt;" style="text;strokeColor=none;fillColor=none;align=left;verticalAlign=top;spacingLeft=4;spacingRight=4;overflow=hidden;rotatable=0;points=[[0,0.5],[1,0.5]];portConstraint=eastwest;whiteSpace=wrap;html=1;" vertex="1" parent="CawzFOfw7iv2VanNzyGM-109">
          <mxGeometry y="52" width="160" height="26" as="geometry" />
        </mxCell>
        <mxCell id="CawzFOfw7iv2VanNzyGM-112" value="-NgayNhapHang: Date" style="text;strokeColor=none;fillColor=none;align=left;verticalAlign=top;spacingLeft=4;spacingRight=4;overflow=hidden;rotatable=0;points=[[0,0.5],[1,0.5]];portConstraint=eastwest;whiteSpace=wrap;html=1;" vertex="1" parent="CawzFOfw7iv2VanNzyGM-109">
          <mxGeometry y="78" width="160" height="26" as="geometry" />
        </mxCell>
        <mxCell id="CawzFOfw7iv2VanNzyGM-113" value="-TongTien: Float" style="text;strokeColor=none;fillColor=none;align=left;verticalAlign=top;spacingLeft=4;spacingRight=4;overflow=hidden;rotatable=0;points=[[0,0.5],[1,0.5]];portConstraint=eastwest;whiteSpace=wrap;html=1;" vertex="1" parent="CawzFOfw7iv2VanNzyGM-109">
          <mxGeometry y="104" width="160" height="26" as="geometry" />
        </mxCell>
        <mxCell id="CawzFOfw7iv2VanNzyGM-117" value="" style="line;strokeWidth=1;fillColor=none;align=left;verticalAlign=middle;spacingTop=-1;spacingLeft=3;spacingRight=3;rotatable=0;labelPosition=right;points=[];portConstraint=eastwest;strokeColor=inherit;" vertex="1" parent="CawzFOfw7iv2VanNzyGM-109">
          <mxGeometry y="130" width="160" height="8" as="geometry" />
        </mxCell>
        <mxCell id="CawzFOfw7iv2VanNzyGM-118" value="&lt;div&gt;+Getter/Setter&amp;nbsp;&lt;/div&gt;" style="text;strokeColor=none;fillColor=none;align=left;verticalAlign=top;spacingLeft=4;spacingRight=4;overflow=hidden;rotatable=0;points=[[0,0.5],[1,0.5]];portConstraint=eastwest;whiteSpace=wrap;html=1;" vertex="1" parent="CawzFOfw7iv2VanNzyGM-109">
          <mxGeometry y="138" width="160" height="26" as="geometry" />
        </mxCell>
        <mxCell id="CawzFOfw7iv2VanNzyGM-119" value="&lt;div&gt;+Constructor&lt;/div&gt;" style="text;strokeColor=none;fillColor=none;align=left;verticalAlign=top;spacingLeft=4;spacingRight=4;overflow=hidden;rotatable=0;points=[[0,0.5],[1,0.5]];portConstraint=eastwest;whiteSpace=wrap;html=1;" vertex="1" parent="CawzFOfw7iv2VanNzyGM-109">
          <mxGeometry y="164" width="160" height="26" as="geometry" />
        </mxCell>
        <mxCell id="CawzFOfw7iv2VanNzyGM-120" value="+Nhap()" style="text;strokeColor=none;fillColor=none;align=left;verticalAlign=top;spacingLeft=4;spacingRight=4;overflow=hidden;rotatable=0;points=[[0,0.5],[1,0.5]];portConstraint=eastwest;whiteSpace=wrap;html=1;" vertex="1" parent="CawzFOfw7iv2VanNzyGM-109">
          <mxGeometry y="190" width="160" height="26" as="geometry" />
        </mxCell>
        <mxCell id="CawzFOfw7iv2VanNzyGM-121" value="+Xuat()" style="text;strokeColor=none;fillColor=none;align=left;verticalAlign=top;spacingLeft=4;spacingRight=4;overflow=hidden;rotatable=0;points=[[0,0.5],[1,0.5]];portConstraint=eastwest;whiteSpace=wrap;html=1;" vertex="1" parent="CawzFOfw7iv2VanNzyGM-109">
          <mxGeometry y="216" width="160" height="26" as="geometry" />
        </mxCell>
        <mxCell id="CawzFOfw7iv2VanNzyGM-122" value="" style="endArrow=diamondThin;endFill=1;endSize=24;html=1;rounded=0;entryX=0.5;entryY=0;entryDx=0;entryDy=0;exitX=0.573;exitY=1.073;exitDx=0;exitDy=0;exitPerimeter=0;" edge="1" parent="WIyWlLk6GJQsqaUBKTNV-1" source="CawzFOfw7iv2VanNzyGM-135" target="CawzFOfw7iv2VanNzyGM-34">
          <mxGeometry width="160" relative="1" as="geometry">
            <mxPoint x="1003.6632124352332" y="-583" as="sourcePoint" />
            <mxPoint x="993" y="-387" as="targetPoint" />
          </mxGeometry>
        </mxCell>
        <mxCell id="CawzFOfw7iv2VanNzyGM-123" value="NhanVien" style="swimlane;fontStyle=1;align=center;verticalAlign=top;childLayout=stackLayout;horizontal=1;startSize=26;horizontalStack=0;resizeParent=1;resizeParentMax=0;resizeLast=0;collapsible=1;marginBottom=0;whiteSpace=wrap;html=1;fillColor=#FFFFCC;" vertex="1" parent="WIyWlLk6GJQsqaUBKTNV-1">
          <mxGeometry x="1092" y="-849" width="160" height="372" as="geometry" />
        </mxCell>
        <mxCell id="CawzFOfw7iv2VanNzyGM-124" value="-MaNV: int&lt;span style=&quot;white-space: pre;&quot;&gt;&#x9;&lt;/span&gt;&lt;div&gt;&lt;br&gt;&lt;/div&gt;" style="text;strokeColor=none;fillColor=none;align=left;verticalAlign=top;spacingLeft=4;spacingRight=4;overflow=hidden;rotatable=0;points=[[0,0.5],[1,0.5]];portConstraint=eastwest;whiteSpace=wrap;html=1;fontStyle=1" vertex="1" parent="CawzFOfw7iv2VanNzyGM-123">
          <mxGeometry y="26" width="160" height="26" as="geometry" />
        </mxCell>
        <mxCell id="CawzFOfw7iv2VanNzyGM-126" value="-ChucVu :String" style="text;strokeColor=none;fillColor=none;align=left;verticalAlign=top;spacingLeft=4;spacingRight=4;overflow=hidden;rotatable=0;points=[[0,0.5],[1,0.5]];portConstraint=eastwest;whiteSpace=wrap;html=1;" vertex="1" parent="CawzFOfw7iv2VanNzyGM-123">
          <mxGeometry y="52" width="160" height="26" as="geometry" />
        </mxCell>
        <mxCell id="CawzFOfw7iv2VanNzyGM-127" value="-HoNV: String" style="text;strokeColor=none;fillColor=none;align=left;verticalAlign=top;spacingLeft=4;spacingRight=4;overflow=hidden;rotatable=0;points=[[0,0.5],[1,0.5]];portConstraint=eastwest;whiteSpace=wrap;html=1;" vertex="1" parent="CawzFOfw7iv2VanNzyGM-123">
          <mxGeometry y="78" width="160" height="26" as="geometry" />
        </mxCell>
        <mxCell id="CawzFOfw7iv2VanNzyGM-128" value="-TenNV: String" style="text;strokeColor=none;fillColor=none;align=left;verticalAlign=top;spacingLeft=4;spacingRight=4;overflow=hidden;rotatable=0;points=[[0,0.5],[1,0.5]];portConstraint=eastwest;whiteSpace=wrap;html=1;" vertex="1" parent="CawzFOfw7iv2VanNzyGM-123">
          <mxGeometry y="104" width="160" height="26" as="geometry" />
        </mxCell>
        <mxCell id="CawzFOfw7iv2VanNzyGM-129" value="-NgaySinh: Date" style="text;strokeColor=none;fillColor=none;align=left;verticalAlign=top;spacingLeft=4;spacingRight=4;overflow=hidden;rotatable=0;points=[[0,0.5],[1,0.5]];portConstraint=eastwest;whiteSpace=wrap;html=1;" vertex="1" parent="CawzFOfw7iv2VanNzyGM-123">
          <mxGeometry y="130" width="160" height="26" as="geometry" />
        </mxCell>
        <mxCell id="CawzFOfw7iv2VanNzyGM-191" value="-DiaChi: String" style="text;strokeColor=none;fillColor=none;align=left;verticalAlign=top;spacingLeft=4;spacingRight=4;overflow=hidden;rotatable=0;points=[[0,0.5],[1,0.5]];portConstraint=eastwest;whiteSpace=wrap;html=1;" vertex="1" parent="CawzFOfw7iv2VanNzyGM-123">
          <mxGeometry y="156" width="160" height="26" as="geometry" />
        </mxCell>
        <mxCell id="CawzFOfw7iv2VanNzyGM-192" value="-SoDienThoai: String&amp;nbsp;" style="text;strokeColor=none;fillColor=none;align=left;verticalAlign=top;spacingLeft=4;spacingRight=4;overflow=hidden;rotatable=0;points=[[0,0.5],[1,0.5]];portConstraint=eastwest;whiteSpace=wrap;html=1;" vertex="1" parent="CawzFOfw7iv2VanNzyGM-123">
          <mxGeometry y="182" width="160" height="26" as="geometry" />
        </mxCell>
        <mxCell id="CawzFOfw7iv2VanNzyGM-130" value="-Luong: float" style="text;strokeColor=none;fillColor=none;align=left;verticalAlign=top;spacingLeft=4;spacingRight=4;overflow=hidden;rotatable=0;points=[[0,0.5],[1,0.5]];portConstraint=eastwest;whiteSpace=wrap;html=1;" vertex="1" parent="CawzFOfw7iv2VanNzyGM-123">
          <mxGeometry y="208" width="160" height="26" as="geometry" />
        </mxCell>
        <mxCell id="CawzFOfw7iv2VanNzyGM-241" value="-GioiTinh: String" style="text;strokeColor=none;fillColor=none;align=left;verticalAlign=top;spacingLeft=4;spacingRight=4;overflow=hidden;rotatable=0;points=[[0,0.5],[1,0.5]];portConstraint=eastwest;whiteSpace=wrap;html=1;" vertex="1" parent="CawzFOfw7iv2VanNzyGM-123">
          <mxGeometry y="234" width="160" height="26" as="geometry" />
        </mxCell>
        <mxCell id="CawzFOfw7iv2VanNzyGM-131" value="" style="line;strokeWidth=1;fillColor=none;align=left;verticalAlign=middle;spacingTop=-1;spacingLeft=3;spacingRight=3;rotatable=0;labelPosition=right;points=[];portConstraint=eastwest;strokeColor=inherit;" vertex="1" parent="CawzFOfw7iv2VanNzyGM-123">
          <mxGeometry y="260" width="160" height="8" as="geometry" />
        </mxCell>
        <mxCell id="CawzFOfw7iv2VanNzyGM-132" value="&lt;div&gt;+Getter/Setter&amp;nbsp;&lt;/div&gt;" style="text;strokeColor=none;fillColor=none;align=left;verticalAlign=top;spacingLeft=4;spacingRight=4;overflow=hidden;rotatable=0;points=[[0,0.5],[1,0.5]];portConstraint=eastwest;whiteSpace=wrap;html=1;" vertex="1" parent="CawzFOfw7iv2VanNzyGM-123">
          <mxGeometry y="268" width="160" height="26" as="geometry" />
        </mxCell>
        <mxCell id="CawzFOfw7iv2VanNzyGM-133" value="&lt;div&gt;+Constructor&lt;/div&gt;" style="text;strokeColor=none;fillColor=none;align=left;verticalAlign=top;spacingLeft=4;spacingRight=4;overflow=hidden;rotatable=0;points=[[0,0.5],[1,0.5]];portConstraint=eastwest;whiteSpace=wrap;html=1;" vertex="1" parent="CawzFOfw7iv2VanNzyGM-123">
          <mxGeometry y="294" width="160" height="26" as="geometry" />
        </mxCell>
        <mxCell id="CawzFOfw7iv2VanNzyGM-134" value="+Nhap()" style="text;strokeColor=none;fillColor=none;align=left;verticalAlign=top;spacingLeft=4;spacingRight=4;overflow=hidden;rotatable=0;points=[[0,0.5],[1,0.5]];portConstraint=eastwest;whiteSpace=wrap;html=1;" vertex="1" parent="CawzFOfw7iv2VanNzyGM-123">
          <mxGeometry y="320" width="160" height="26" as="geometry" />
        </mxCell>
        <mxCell id="CawzFOfw7iv2VanNzyGM-135" value="+Xuat" style="text;strokeColor=none;fillColor=none;align=left;verticalAlign=top;spacingLeft=4;spacingRight=4;overflow=hidden;rotatable=0;points=[[0,0.5],[1,0.5]];portConstraint=eastwest;whiteSpace=wrap;html=1;" vertex="1" parent="CawzFOfw7iv2VanNzyGM-123">
          <mxGeometry y="346" width="160" height="26" as="geometry" />
        </mxCell>
        <mxCell id="CawzFOfw7iv2VanNzyGM-136" value="" style="endArrow=diamondThin;endFill=1;endSize=24;html=1;rounded=0;exitX=0.433;exitY=1.051;exitDx=0;exitDy=0;exitPerimeter=0;entryX=0.5;entryY=0;entryDx=0;entryDy=0;" edge="1" parent="WIyWlLk6GJQsqaUBKTNV-1" source="CawzFOfw7iv2VanNzyGM-238" target="CawzFOfw7iv2VanNzyGM-44">
          <mxGeometry width="160" relative="1" as="geometry">
            <mxPoint x="1208.6632124352332" y="-594" as="sourcePoint" />
            <mxPoint x="1204" y="-387" as="targetPoint" />
          </mxGeometry>
        </mxCell>
        <mxCell id="CawzFOfw7iv2VanNzyGM-137" value="KhachHang" style="swimlane;fontStyle=1;align=center;verticalAlign=top;childLayout=stackLayout;horizontal=1;startSize=26;horizontalStack=0;resizeParent=1;resizeParentMax=0;resizeLast=0;collapsible=1;marginBottom=0;whiteSpace=wrap;html=1;fillColor=#FFFFCC;" vertex="1" parent="WIyWlLk6GJQsqaUBKTNV-1">
          <mxGeometry x="1307" y="-857" width="160" height="424" as="geometry" />
        </mxCell>
        <mxCell id="CawzFOfw7iv2VanNzyGM-138" value="-MaKH:int&amp;nbsp;" style="text;strokeColor=none;fillColor=none;align=left;verticalAlign=top;spacingLeft=4;spacingRight=4;overflow=hidden;rotatable=0;points=[[0,0.5],[1,0.5]];portConstraint=eastwest;whiteSpace=wrap;html=1;fontStyle=1" vertex="1" parent="CawzFOfw7iv2VanNzyGM-137">
          <mxGeometry y="26" width="160" height="26" as="geometry" />
        </mxCell>
        <mxCell id="CawzFOfw7iv2VanNzyGM-139" value="-HoKh: String" style="text;strokeColor=none;fillColor=none;align=left;verticalAlign=top;spacingLeft=4;spacingRight=4;overflow=hidden;rotatable=0;points=[[0,0.5],[1,0.5]];portConstraint=eastwest;whiteSpace=wrap;html=1;" vertex="1" parent="CawzFOfw7iv2VanNzyGM-137">
          <mxGeometry y="52" width="160" height="26" as="geometry" />
        </mxCell>
        <mxCell id="CawzFOfw7iv2VanNzyGM-140" value="-TenKH: String" style="text;strokeColor=none;fillColor=none;align=left;verticalAlign=top;spacingLeft=4;spacingRight=4;overflow=hidden;rotatable=0;points=[[0,0.5],[1,0.5]];portConstraint=eastwest;whiteSpace=wrap;html=1;" vertex="1" parent="CawzFOfw7iv2VanNzyGM-137">
          <mxGeometry y="78" width="160" height="26" as="geometry" />
        </mxCell>
        <mxCell id="CawzFOfw7iv2VanNzyGM-141" value="-NgaySinh: Date" style="text;strokeColor=none;fillColor=none;align=left;verticalAlign=top;spacingLeft=4;spacingRight=4;overflow=hidden;rotatable=0;points=[[0,0.5],[1,0.5]];portConstraint=eastwest;whiteSpace=wrap;html=1;" vertex="1" parent="CawzFOfw7iv2VanNzyGM-137">
          <mxGeometry y="104" width="160" height="26" as="geometry" />
        </mxCell>
        <mxCell id="CawzFOfw7iv2VanNzyGM-221" value="-GioiTinh:String" style="text;strokeColor=none;fillColor=none;align=left;verticalAlign=top;spacingLeft=4;spacingRight=4;overflow=hidden;rotatable=0;points=[[0,0.5],[1,0.5]];portConstraint=eastwest;whiteSpace=wrap;html=1;" vertex="1" parent="CawzFOfw7iv2VanNzyGM-137">
          <mxGeometry y="130" width="160" height="26" as="geometry" />
        </mxCell>
        <mxCell id="CawzFOfw7iv2VanNzyGM-142" value="-DiaChi: String" style="text;strokeColor=none;fillColor=none;align=left;verticalAlign=top;spacingLeft=4;spacingRight=4;overflow=hidden;rotatable=0;points=[[0,0.5],[1,0.5]];portConstraint=eastwest;whiteSpace=wrap;html=1;" vertex="1" parent="CawzFOfw7iv2VanNzyGM-137">
          <mxGeometry y="156" width="160" height="26" as="geometry" />
        </mxCell>
        <mxCell id="CawzFOfw7iv2VanNzyGM-143" value="-SDT: String&amp;nbsp;" style="text;strokeColor=none;fillColor=none;align=left;verticalAlign=top;spacingLeft=4;spacingRight=4;overflow=hidden;rotatable=0;points=[[0,0.5],[1,0.5]];portConstraint=eastwest;whiteSpace=wrap;html=1;" vertex="1" parent="CawzFOfw7iv2VanNzyGM-137">
          <mxGeometry y="182" width="160" height="26" as="geometry" />
        </mxCell>
        <mxCell id="CawzFOfw7iv2VanNzyGM-144" value="-Diem: Float" style="text;strokeColor=none;fillColor=none;align=left;verticalAlign=top;spacingLeft=4;spacingRight=4;overflow=hidden;rotatable=0;points=[[0,0.5],[1,0.5]];portConstraint=eastwest;whiteSpace=wrap;html=1;" vertex="1" parent="CawzFOfw7iv2VanNzyGM-137">
          <mxGeometry y="208" width="160" height="26" as="geometry" />
        </mxCell>
        <mxCell id="CawzFOfw7iv2VanNzyGM-195" value="-Hang : int" style="text;strokeColor=none;fillColor=none;align=left;verticalAlign=top;spacingLeft=4;spacingRight=4;overflow=hidden;rotatable=0;points=[[0,0.5],[1,0.5]];portConstraint=eastwest;whiteSpace=wrap;html=1;" vertex="1" parent="CawzFOfw7iv2VanNzyGM-137">
          <mxGeometry y="234" width="160" height="26" as="geometry" />
        </mxCell>
        <mxCell id="CawzFOfw7iv2VanNzyGM-196" value="-NgayThamGia: Date" style="text;strokeColor=none;fillColor=none;align=left;verticalAlign=top;spacingLeft=4;spacingRight=4;overflow=hidden;rotatable=0;points=[[0,0.5],[1,0.5]];portConstraint=eastwest;whiteSpace=wrap;html=1;" vertex="1" parent="CawzFOfw7iv2VanNzyGM-137">
          <mxGeometry y="260" width="160" height="26" as="geometry" />
        </mxCell>
        <mxCell id="CawzFOfw7iv2VanNzyGM-145" value="" style="line;strokeWidth=1;fillColor=none;align=left;verticalAlign=middle;spacingTop=-1;spacingLeft=3;spacingRight=3;rotatable=0;labelPosition=right;points=[];portConstraint=eastwest;strokeColor=inherit;" vertex="1" parent="CawzFOfw7iv2VanNzyGM-137">
          <mxGeometry y="286" width="160" height="8" as="geometry" />
        </mxCell>
        <mxCell id="CawzFOfw7iv2VanNzyGM-146" value="&lt;div&gt;+Getter/Setter&amp;nbsp;&lt;/div&gt;" style="text;strokeColor=none;fillColor=none;align=left;verticalAlign=top;spacingLeft=4;spacingRight=4;overflow=hidden;rotatable=0;points=[[0,0.5],[1,0.5]];portConstraint=eastwest;whiteSpace=wrap;html=1;" vertex="1" parent="CawzFOfw7iv2VanNzyGM-137">
          <mxGeometry y="294" width="160" height="26" as="geometry" />
        </mxCell>
        <mxCell id="CawzFOfw7iv2VanNzyGM-147" value="&lt;div&gt;+Constructor&lt;/div&gt;" style="text;strokeColor=none;fillColor=none;align=left;verticalAlign=top;spacingLeft=4;spacingRight=4;overflow=hidden;rotatable=0;points=[[0,0.5],[1,0.5]];portConstraint=eastwest;whiteSpace=wrap;html=1;" vertex="1" parent="CawzFOfw7iv2VanNzyGM-137">
          <mxGeometry y="320" width="160" height="26" as="geometry" />
        </mxCell>
        <mxCell id="CawzFOfw7iv2VanNzyGM-148" value="+Nhap()" style="text;strokeColor=none;fillColor=none;align=left;verticalAlign=top;spacingLeft=4;spacingRight=4;overflow=hidden;rotatable=0;points=[[0,0.5],[1,0.5]];portConstraint=eastwest;whiteSpace=wrap;html=1;" vertex="1" parent="CawzFOfw7iv2VanNzyGM-137">
          <mxGeometry y="346" width="160" height="26" as="geometry" />
        </mxCell>
        <mxCell id="CawzFOfw7iv2VanNzyGM-149" value="+Xuat" style="text;strokeColor=none;fillColor=none;align=left;verticalAlign=top;spacingLeft=4;spacingRight=4;overflow=hidden;rotatable=0;points=[[0,0.5],[1,0.5]];portConstraint=eastwest;whiteSpace=wrap;html=1;" vertex="1" parent="CawzFOfw7iv2VanNzyGM-137">
          <mxGeometry y="372" width="160" height="26" as="geometry" />
        </mxCell>
        <mxCell id="CawzFOfw7iv2VanNzyGM-238" value="+giamGiaUuDai()" style="text;strokeColor=none;fillColor=none;align=left;verticalAlign=top;spacingLeft=4;spacingRight=4;overflow=hidden;rotatable=0;points=[[0,0.5],[1,0.5]];portConstraint=eastwest;whiteSpace=wrap;html=1;" vertex="1" parent="CawzFOfw7iv2VanNzyGM-137">
          <mxGeometry y="398" width="160" height="26" as="geometry" />
        </mxCell>
        <mxCell id="CawzFOfw7iv2VanNzyGM-150" value="" style="endArrow=diamondThin;endFill=1;endSize=24;html=1;rounded=0;entryX=0.322;entryY=-0.008;entryDx=0;entryDy=0;exitX=0.527;exitY=1.048;exitDx=0;exitDy=0;exitPerimeter=0;entryPerimeter=0;" edge="1" parent="WIyWlLk6GJQsqaUBKTNV-1" source="CawzFOfw7iv2VanNzyGM-161" target="CawzFOfw7iv2VanNzyGM-24">
          <mxGeometry width="160" relative="1" as="geometry">
            <mxPoint x="931.6799999999998" y="-981.1020000000001" as="sourcePoint" />
            <mxPoint x="1595" y="-437" as="targetPoint" />
          </mxGeometry>
        </mxCell>
        <mxCell id="CawzFOfw7iv2VanNzyGM-151" value="ChiTietPhieuNhapHang" style="swimlane;fontStyle=1;align=center;verticalAlign=top;childLayout=stackLayout;horizontal=1;startSize=26;horizontalStack=0;resizeParent=1;resizeParentMax=0;resizeLast=0;collapsible=1;marginBottom=0;whiteSpace=wrap;html=1;fillColor=#FFFFCC;" vertex="1" parent="WIyWlLk6GJQsqaUBKTNV-1">
          <mxGeometry x="717" y="-827" width="160" height="216" as="geometry" />
        </mxCell>
        <mxCell id="CawzFOfw7iv2VanNzyGM-152" value="-MaPhieu" style="text;strokeColor=none;fillColor=none;align=left;verticalAlign=top;spacingLeft=4;spacingRight=4;overflow=hidden;rotatable=0;points=[[0,0.5],[1,0.5]];portConstraint=eastwest;whiteSpace=wrap;html=1;fontStyle=1" vertex="1" parent="CawzFOfw7iv2VanNzyGM-151">
          <mxGeometry y="26" width="160" height="26" as="geometry" />
        </mxCell>
        <mxCell id="CawzFOfw7iv2VanNzyGM-153" value="-MaSP" style="text;strokeColor=none;fillColor=none;align=left;verticalAlign=top;spacingLeft=4;spacingRight=4;overflow=hidden;rotatable=0;points=[[0,0.5],[1,0.5]];portConstraint=eastwest;whiteSpace=wrap;html=1;fontStyle=1" vertex="1" parent="CawzFOfw7iv2VanNzyGM-151">
          <mxGeometry y="52" width="160" height="26" as="geometry" />
        </mxCell>
        <mxCell id="CawzFOfw7iv2VanNzyGM-154" value="-SoLuong: int&amp;nbsp;" style="text;strokeColor=none;fillColor=none;align=left;verticalAlign=top;spacingLeft=4;spacingRight=4;overflow=hidden;rotatable=0;points=[[0,0.5],[1,0.5]];portConstraint=eastwest;whiteSpace=wrap;html=1;" vertex="1" parent="CawzFOfw7iv2VanNzyGM-151">
          <mxGeometry y="78" width="160" height="26" as="geometry" />
        </mxCell>
        <mxCell id="Qnm0zutlPRJeOMRiaNCC-3" value="-DonGia:double&lt;div&gt;&lt;br&gt;&lt;/div&gt;" style="text;strokeColor=none;fillColor=none;align=left;verticalAlign=top;spacingLeft=4;spacingRight=4;overflow=hidden;rotatable=0;points=[[0,0.5],[1,0.5]];portConstraint=eastwest;whiteSpace=wrap;html=1;" vertex="1" parent="CawzFOfw7iv2VanNzyGM-151">
          <mxGeometry y="104" width="160" height="26" as="geometry" />
        </mxCell>
        <mxCell id="Jda60-QUl-uX_Kf3QLCs-0" value="ThanhTien:&amp;nbsp; double" style="text;strokeColor=none;fillColor=none;align=left;verticalAlign=top;spacingLeft=4;spacingRight=4;overflow=hidden;rotatable=0;points=[[0,0.5],[1,0.5]];portConstraint=eastwest;whiteSpace=wrap;html=1;" vertex="1" parent="CawzFOfw7iv2VanNzyGM-151">
          <mxGeometry y="130" width="160" height="26" as="geometry" />
        </mxCell>
        <mxCell id="CawzFOfw7iv2VanNzyGM-159" value="" style="line;strokeWidth=1;fillColor=none;align=left;verticalAlign=middle;spacingTop=-1;spacingLeft=3;spacingRight=3;rotatable=0;labelPosition=right;points=[];portConstraint=eastwest;strokeColor=inherit;" vertex="1" parent="CawzFOfw7iv2VanNzyGM-151">
          <mxGeometry y="156" width="160" height="8" as="geometry" />
        </mxCell>
        <mxCell id="CawzFOfw7iv2VanNzyGM-160" value="&lt;div&gt;+Getter/Setter&amp;nbsp;&lt;/div&gt;" style="text;strokeColor=none;fillColor=none;align=left;verticalAlign=top;spacingLeft=4;spacingRight=4;overflow=hidden;rotatable=0;points=[[0,0.5],[1,0.5]];portConstraint=eastwest;whiteSpace=wrap;html=1;" vertex="1" parent="CawzFOfw7iv2VanNzyGM-151">
          <mxGeometry y="164" width="160" height="26" as="geometry" />
        </mxCell>
        <mxCell id="CawzFOfw7iv2VanNzyGM-161" value="&lt;div&gt;+Constructor&lt;/div&gt;" style="text;strokeColor=none;fillColor=none;align=left;verticalAlign=top;spacingLeft=4;spacingRight=4;overflow=hidden;rotatable=0;points=[[0,0.5],[1,0.5]];portConstraint=eastwest;whiteSpace=wrap;html=1;" vertex="1" parent="CawzFOfw7iv2VanNzyGM-151">
          <mxGeometry y="190" width="160" height="26" as="geometry" />
        </mxCell>
        <mxCell id="CawzFOfw7iv2VanNzyGM-165" value="" style="endArrow=diamondThin;endFill=1;endSize=24;html=1;rounded=0;entryX=0.5;entryY=0;entryDx=0;entryDy=0;exitX=0.52;exitY=1.036;exitDx=0;exitDy=0;exitPerimeter=0;" edge="1" parent="WIyWlLk6GJQsqaUBKTNV-1" source="CawzFOfw7iv2VanNzyGM-176" target="CawzFOfw7iv2VanNzyGM-14">
          <mxGeometry width="160" relative="1" as="geometry">
            <mxPoint x="1461.6799999999994" y="-915.1020000000001" as="sourcePoint" />
            <mxPoint x="1431" y="-692" as="targetPoint" />
          </mxGeometry>
        </mxCell>
        <mxCell id="CawzFOfw7iv2VanNzyGM-166" value="ChiTietHoaDon" style="swimlane;fontStyle=1;align=center;verticalAlign=top;childLayout=stackLayout;horizontal=1;startSize=26;horizontalStack=0;resizeParent=1;resizeParentMax=0;resizeLast=0;collapsible=1;marginBottom=0;whiteSpace=wrap;html=1;fillColor=#FFFFCC;" vertex="1" parent="WIyWlLk6GJQsqaUBKTNV-1">
          <mxGeometry x="535" y="-835" width="160" height="190" as="geometry" />
        </mxCell>
        <mxCell id="CawzFOfw7iv2VanNzyGM-167" value="-MaHD: int&amp;nbsp;" style="text;strokeColor=none;fillColor=none;align=left;verticalAlign=top;spacingLeft=4;spacingRight=4;overflow=hidden;rotatable=0;points=[[0,0.5],[1,0.5]];portConstraint=eastwest;whiteSpace=wrap;html=1;fontStyle=1" vertex="1" parent="CawzFOfw7iv2VanNzyGM-166">
          <mxGeometry y="26" width="160" height="26" as="geometry" />
        </mxCell>
        <mxCell id="CawzFOfw7iv2VanNzyGM-168" value="-MaSP : int" style="text;strokeColor=none;fillColor=none;align=left;verticalAlign=top;spacingLeft=4;spacingRight=4;overflow=hidden;rotatable=0;points=[[0,0.5],[1,0.5]];portConstraint=eastwest;whiteSpace=wrap;html=1;fontStyle=1" vertex="1" parent="CawzFOfw7iv2VanNzyGM-166">
          <mxGeometry y="52" width="160" height="26" as="geometry" />
        </mxCell>
        <mxCell id="CawzFOfw7iv2VanNzyGM-169" value="-SoLuong: int" style="text;strokeColor=none;fillColor=none;align=left;verticalAlign=top;spacingLeft=4;spacingRight=4;overflow=hidden;rotatable=0;points=[[0,0.5],[1,0.5]];portConstraint=eastwest;whiteSpace=wrap;html=1;" vertex="1" parent="CawzFOfw7iv2VanNzyGM-166">
          <mxGeometry y="78" width="160" height="26" as="geometry" />
        </mxCell>
        <mxCell id="vvVAZlD1Idx_0V8CswW9-4" value="-donGia: int" style="text;strokeColor=none;fillColor=none;align=left;verticalAlign=top;spacingLeft=4;spacingRight=4;overflow=hidden;rotatable=0;points=[[0,0.5],[1,0.5]];portConstraint=eastwest;whiteSpace=wrap;html=1;" vertex="1" parent="CawzFOfw7iv2VanNzyGM-166">
          <mxGeometry y="104" width="160" height="26" as="geometry" />
        </mxCell>
        <mxCell id="CawzFOfw7iv2VanNzyGM-174" value="" style="line;strokeWidth=1;fillColor=none;align=left;verticalAlign=middle;spacingTop=-1;spacingLeft=3;spacingRight=3;rotatable=0;labelPosition=right;points=[];portConstraint=eastwest;strokeColor=inherit;" vertex="1" parent="CawzFOfw7iv2VanNzyGM-166">
          <mxGeometry y="130" width="160" height="8" as="geometry" />
        </mxCell>
        <mxCell id="CawzFOfw7iv2VanNzyGM-175" value="&lt;div&gt;+Getter/Setter&amp;nbsp;&lt;/div&gt;" style="text;strokeColor=none;fillColor=none;align=left;verticalAlign=top;spacingLeft=4;spacingRight=4;overflow=hidden;rotatable=0;points=[[0,0.5],[1,0.5]];portConstraint=eastwest;whiteSpace=wrap;html=1;" vertex="1" parent="CawzFOfw7iv2VanNzyGM-166">
          <mxGeometry y="138" width="160" height="26" as="geometry" />
        </mxCell>
        <mxCell id="CawzFOfw7iv2VanNzyGM-176" value="&lt;div&gt;+Constructor&lt;/div&gt;" style="text;strokeColor=none;fillColor=none;align=left;verticalAlign=top;spacingLeft=4;spacingRight=4;overflow=hidden;rotatable=0;points=[[0,0.5],[1,0.5]];portConstraint=eastwest;whiteSpace=wrap;html=1;" vertex="1" parent="CawzFOfw7iv2VanNzyGM-166">
          <mxGeometry y="164" width="160" height="26" as="geometry" />
        </mxCell>
        <mxCell id="CawzFOfw7iv2VanNzyGM-254" value="" style="endArrow=diamondThin;endFill=1;endSize=24;html=1;rounded=0;entryX=0.75;entryY=0;entryDx=0;entryDy=0;exitX=0.573;exitY=1.073;exitDx=0;exitDy=0;exitPerimeter=0;" edge="1" parent="WIyWlLk6GJQsqaUBKTNV-1" source="CawzFOfw7iv2VanNzyGM-264" target="CawzFOfw7iv2VanNzyGM-44">
          <mxGeometry width="160" relative="1" as="geometry">
            <mxPoint x="529.6632124352332" y="-381" as="sourcePoint" />
            <mxPoint x="535" y="-122" as="targetPoint" />
          </mxGeometry>
        </mxCell>
        <mxCell id="CawzFOfw7iv2VanNzyGM-255" value="PhanHoiKhach" style="swimlane;fontStyle=1;align=center;verticalAlign=top;childLayout=stackLayout;horizontal=1;startSize=26;horizontalStack=0;resizeParent=1;resizeParentMax=0;resizeLast=0;collapsible=1;marginBottom=0;whiteSpace=wrap;html=1;fillColor=#FFFFCC;" vertex="1" parent="WIyWlLk6GJQsqaUBKTNV-1">
          <mxGeometry x="1507" y="-649" width="115" height="216" as="geometry" />
        </mxCell>
        <mxCell id="CawzFOfw7iv2VanNzyGM-256" value="#MaKH" style="text;strokeColor=none;fillColor=none;align=left;verticalAlign=top;spacingLeft=4;spacingRight=4;overflow=hidden;rotatable=0;points=[[0,0.5],[1,0.5]];portConstraint=eastwest;whiteSpace=wrap;html=1;" vertex="1" parent="CawzFOfw7iv2VanNzyGM-255">
          <mxGeometry y="26" width="115" height="26" as="geometry" />
        </mxCell>
        <mxCell id="CawzFOfw7iv2VanNzyGM-257" value="-ngayphanhoi:date" style="text;strokeColor=none;fillColor=none;align=left;verticalAlign=top;spacingLeft=4;spacingRight=4;overflow=hidden;rotatable=0;points=[[0,0.5],[1,0.5]];portConstraint=eastwest;whiteSpace=wrap;html=1;" vertex="1" parent="CawzFOfw7iv2VanNzyGM-255">
          <mxGeometry y="52" width="115" height="26" as="geometry" />
        </mxCell>
        <mxCell id="CawzFOfw7iv2VanNzyGM-259" value="-noidung: String" style="text;strokeColor=none;fillColor=none;align=left;verticalAlign=top;spacingLeft=4;spacingRight=4;overflow=hidden;rotatable=0;points=[[0,0.5],[1,0.5]];portConstraint=eastwest;whiteSpace=wrap;html=1;" vertex="1" parent="CawzFOfw7iv2VanNzyGM-255">
          <mxGeometry y="78" width="115" height="26" as="geometry" />
        </mxCell>
        <mxCell id="CawzFOfw7iv2VanNzyGM-260" value="" style="line;strokeWidth=1;fillColor=none;align=left;verticalAlign=middle;spacingTop=-1;spacingLeft=3;spacingRight=3;rotatable=0;labelPosition=right;points=[];portConstraint=eastwest;strokeColor=inherit;" vertex="1" parent="CawzFOfw7iv2VanNzyGM-255">
          <mxGeometry y="104" width="115" height="8" as="geometry" />
        </mxCell>
        <mxCell id="CawzFOfw7iv2VanNzyGM-261" value="&lt;div&gt;+Getter/Setter&amp;nbsp;&lt;/div&gt;" style="text;strokeColor=none;fillColor=none;align=left;verticalAlign=top;spacingLeft=4;spacingRight=4;overflow=hidden;rotatable=0;points=[[0,0.5],[1,0.5]];portConstraint=eastwest;whiteSpace=wrap;html=1;" vertex="1" parent="CawzFOfw7iv2VanNzyGM-255">
          <mxGeometry y="112" width="115" height="26" as="geometry" />
        </mxCell>
        <mxCell id="CawzFOfw7iv2VanNzyGM-262" value="&lt;div&gt;+Constructor&lt;/div&gt;" style="text;strokeColor=none;fillColor=none;align=left;verticalAlign=top;spacingLeft=4;spacingRight=4;overflow=hidden;rotatable=0;points=[[0,0.5],[1,0.5]];portConstraint=eastwest;whiteSpace=wrap;html=1;" vertex="1" parent="CawzFOfw7iv2VanNzyGM-255">
          <mxGeometry y="138" width="115" height="26" as="geometry" />
        </mxCell>
        <mxCell id="CawzFOfw7iv2VanNzyGM-263" value="+Nhap()" style="text;strokeColor=none;fillColor=none;align=left;verticalAlign=top;spacingLeft=4;spacingRight=4;overflow=hidden;rotatable=0;points=[[0,0.5],[1,0.5]];portConstraint=eastwest;whiteSpace=wrap;html=1;" vertex="1" parent="CawzFOfw7iv2VanNzyGM-255">
          <mxGeometry y="164" width="115" height="26" as="geometry" />
        </mxCell>
        <mxCell id="CawzFOfw7iv2VanNzyGM-264" value="+Xuat()" style="text;strokeColor=none;fillColor=none;align=left;verticalAlign=top;spacingLeft=4;spacingRight=4;overflow=hidden;rotatable=0;points=[[0,0.5],[1,0.5]];portConstraint=eastwest;whiteSpace=wrap;html=1;" vertex="1" parent="CawzFOfw7iv2VanNzyGM-255">
          <mxGeometry y="190" width="115" height="26" as="geometry" />
        </mxCell>
        <mxCell id="CawzFOfw7iv2VanNzyGM-265" style="edgeStyle=orthogonalEdgeStyle;rounded=0;orthogonalLoop=1;jettySize=auto;html=1;entryX=0;entryY=0.5;entryDx=0;entryDy=0;exitX=1;exitY=0.5;exitDx=0;exitDy=0;strokeColor=#67AB9F;" edge="1" parent="WIyWlLk6GJQsqaUBKTNV-1" source="CawzFOfw7iv2VanNzyGM-70" target="CawzFOfw7iv2VanNzyGM-138">
          <mxGeometry relative="1" as="geometry">
            <Array as="points">
              <mxPoint x="512" y="-772" />
              <mxPoint x="512" y="-982" />
              <mxPoint x="1283" y="-982" />
              <mxPoint x="1283" y="-818" />
            </Array>
          </mxGeometry>
        </mxCell>
        <mxCell id="CawzFOfw7iv2VanNzyGM-266" style="edgeStyle=orthogonalEdgeStyle;rounded=0;orthogonalLoop=1;jettySize=auto;html=1;exitX=1;exitY=0.5;exitDx=0;exitDy=0;entryX=0;entryY=0.5;entryDx=0;entryDy=0;strokeColor=#67AB9F;" edge="1" parent="WIyWlLk6GJQsqaUBKTNV-1" source="CawzFOfw7iv2VanNzyGM-71" target="CawzFOfw7iv2VanNzyGM-124">
          <mxGeometry relative="1" as="geometry">
            <Array as="points">
              <mxPoint x="525" y="-746" />
              <mxPoint x="525" y="-881" />
              <mxPoint x="1079" y="-881" />
              <mxPoint x="1079" y="-810" />
            </Array>
          </mxGeometry>
        </mxCell>
        <mxCell id="CawzFOfw7iv2VanNzyGM-267" style="edgeStyle=orthogonalEdgeStyle;rounded=0;orthogonalLoop=1;jettySize=auto;html=1;entryX=1;entryY=0.5;entryDx=0;entryDy=0;strokeColor=#FFFF00;exitX=0;exitY=0.5;exitDx=0;exitDy=0;" edge="1" parent="WIyWlLk6GJQsqaUBKTNV-1" source="CawzFOfw7iv2VanNzyGM-168" target="CawzFOfw7iv2VanNzyGM-69">
          <mxGeometry relative="1" as="geometry">
            <Array as="points">
              <mxPoint x="537" y="-770" />
              <mxPoint x="537" y="-772" />
              <mxPoint x="531" y="-772" />
              <mxPoint x="531" y="-798" />
            </Array>
          </mxGeometry>
        </mxCell>
        <mxCell id="CawzFOfw7iv2VanNzyGM-268" style="edgeStyle=orthogonalEdgeStyle;rounded=0;orthogonalLoop=1;jettySize=auto;html=1;entryX=1;entryY=0.5;entryDx=0;entryDy=0;exitX=0;exitY=0.5;exitDx=0;exitDy=0;strokeColor=#FFFF00;" edge="1" parent="WIyWlLk6GJQsqaUBKTNV-1" source="CawzFOfw7iv2VanNzyGM-168" target="RmwvAKCOpkevOdC7m3rw-74">
          <mxGeometry relative="1" as="geometry">
            <Array as="points">
              <mxPoint x="529" y="-770" />
              <mxPoint x="529" y="-746" />
              <mxPoint x="531" y="-746" />
              <mxPoint x="531" y="-911" />
              <mxPoint x="313" y="-911" />
              <mxPoint x="313" y="-864" />
              <mxPoint x="106" y="-864" />
              <mxPoint x="106" y="-788" />
            </Array>
          </mxGeometry>
        </mxCell>
        <mxCell id="CawzFOfw7iv2VanNzyGM-269" style="edgeStyle=orthogonalEdgeStyle;rounded=0;orthogonalLoop=1;jettySize=auto;html=1;exitX=0;exitY=0.5;exitDx=0;exitDy=0;strokeColor=#80FF00;" edge="1" parent="WIyWlLk6GJQsqaUBKTNV-1" source="CawzFOfw7iv2VanNzyGM-111">
          <mxGeometry relative="1" as="geometry">
            <mxPoint x="287" y="-779" as="targetPoint" />
            <Array as="points">
              <mxPoint x="892" y="-762" />
              <mxPoint x="892" y="-944" />
              <mxPoint x="313" y="-944" />
              <mxPoint x="313" y="-779" />
              <mxPoint x="287" y="-779" />
            </Array>
          </mxGeometry>
        </mxCell>
        <mxCell id="CawzFOfw7iv2VanNzyGM-270" style="edgeStyle=orthogonalEdgeStyle;rounded=0;orthogonalLoop=1;jettySize=auto;html=1;entryX=0;entryY=0.5;entryDx=0;entryDy=0;strokeColor=#FF0019;" edge="1" parent="WIyWlLk6GJQsqaUBKTNV-1" source="CawzFOfw7iv2VanNzyGM-152" target="CawzFOfw7iv2VanNzyGM-110">
          <mxGeometry relative="1" as="geometry" />
        </mxCell>
        <mxCell id="CawzFOfw7iv2VanNzyGM-271" style="edgeStyle=orthogonalEdgeStyle;rounded=0;orthogonalLoop=1;jettySize=auto;html=1;exitX=0;exitY=0.5;exitDx=0;exitDy=0;entryX=0;entryY=0.5;entryDx=0;entryDy=0;strokeColor=#FF0019;" edge="1" parent="WIyWlLk6GJQsqaUBKTNV-1" source="CawzFOfw7iv2VanNzyGM-153" target="RmwvAKCOpkevOdC7m3rw-74">
          <mxGeometry relative="1" as="geometry">
            <Array as="points">
              <mxPoint x="703" y="-762" />
              <mxPoint x="703" y="-860" />
              <mxPoint x="403" y="-860" />
              <mxPoint x="403" y="-877" />
              <mxPoint x="-89" y="-877" />
              <mxPoint x="-89" y="-788" />
            </Array>
          </mxGeometry>
        </mxCell>
        <mxCell id="CawzFOfw7iv2VanNzyGM-273" value="-HoaDon: có Makh,MaNv lam khoá ngoại&lt;div&gt;&lt;br&gt;&lt;div&gt;-Chi_tiet_hoadon: có MaHd, MaSP làm khoa ngoại,&amp;nbsp;&lt;/div&gt;&lt;div&gt;&lt;br&gt;&lt;/div&gt;&lt;div&gt;-PhieuNhapHang: có maNcc làm khoá ngoại&lt;/div&gt;&lt;div&gt;&lt;br&gt;&lt;/div&gt;&lt;div&gt;-Chi_tiet_phieuNhapHang: có&amp;nbsp; MaPhieu,MaSP lam khoá ngoại&lt;/div&gt;&lt;div&gt;&lt;br&gt;&lt;/div&gt;&lt;div&gt;-PhanhoiKhachHang: có mãKh làm khoa ngoại&lt;/div&gt;&lt;/div&gt;" style="text;html=1;align=left;verticalAlign=middle;whiteSpace=wrap;rounded=0;fillColor=#CCCCCC;" vertex="1" parent="WIyWlLk6GJQsqaUBKTNV-1">
          <mxGeometry x="1301" y="-5" width="326" height="148" as="geometry" />
        </mxCell>
        <mxCell id="bQZOcf4Kk26WKD2frQfG-3" value="Actor" style="shape=umlActor;verticalLabelPosition=bottom;verticalAlign=top;html=1;outlineConnect=0;" vertex="1" parent="WIyWlLk6GJQsqaUBKTNV-1">
          <mxGeometry x="1147" y="-945" width="30" height="60" as="geometry" />
        </mxCell>
      </root>
    </mxGraphModel>
  </diagram>
</mxfile>
